<svg width="174" height="126" viewBox="0 0 174 126" fill="none" xmlns="http://www.w3.org/2000/svg">
<path d="M173.047 114.154L126.73 123.399L125.676 123.295L85.0255 119.028L85.2429 67.6197L135.062 59.4342L171.157 63.7883L171.17 64.0162L171.169 64.1234L173.047 114.154Z" fill="#D89F0E"/>
<path opacity="0.1" d="M173.045 114.244L126.075 123.397L125.006 123.292L125.227 71.0955L171.136 64.5866L173.045 114.244Z" fill="black"/>
<path opacity="0.05" d="M170.259 64.0396L170.246 64.0528L125.469 70.3937L85.2436 67.4719L134.534 59.4319L170.247 63.7105L170.259 63.9343L170.259 64.0396Z" fill="black"/>
<path d="M88.0391 115.794L41.7224 125.04L40.6682 124.935L0.0177402 120.669L0.235133 69.2604L50.054 61.0748L86.1495 65.4289L86.162 65.6568L86.1615 65.764L88.0391 115.794Z" fill="#9ABA19"/>
<path opacity="0.1" d="M88.0368 115.885L41.0672 125.037L39.9981 124.933L40.2188 72.7362L86.1281 66.2272L88.0368 115.885Z" fill="black"/>
<path opacity="0.05" d="M86.251 65.6845L86.2375 65.6976L40.9341 72.0363L0.235758 69.1125L50.1057 61.075L86.239 65.3553L86.2515 65.5792L86.251 65.6845Z" fill="black"/>
<path d="M137.254 65.2248L81.9894 76.2098L80.7316 76.0772L32.2282 71.0107L32.4863 9.96934L91.929 0.251188L134.998 5.42205L135.013 5.69264L135.012 5.81994L137.254 65.2248Z" fill="#00426C"/>
<path opacity="0.1" d="M137.252 65.1836L82.4525 76.2117L81.2053 76.0786L81.4709 13.2724L135.033 5.43339L137.252 65.1836Z" fill="black"/>
<path opacity="0.05" d="M134.505 5.69819L134.489 5.71367L80.7574 13.2041L32.4872 9.74797L91.6351 0.249945L134.491 5.30914L134.506 5.57371L134.505 5.69819Z" fill="black"/>
</svg>
