<svg width="30" height="30" viewBox="0 0 30 30" fill="none" xmlns="http://www.w3.org/2000/svg">
<path fill-rule="evenodd" clip-rule="evenodd" d="M12.1353 6.68843V6.09C12.1353 5.76142 12.4674 5.49357 12.8751 5.49357H17.0263C17.435 5.49357 17.7671 5.76142 17.7671 6.09V6.68843H12.1353ZM21.1269 8.181C21.0404 10.4363 20.5045 24.2548 20.4368 24.8771C20.3971 25.2495 20.2599 25.4327 20.1863 25.5064H9.71511C9.64054 25.4327 9.50431 25.2495 9.46454 24.8771C9.39792 24.2548 8.79835 10.4463 8.70091 8.181H21.1269ZM19.2526 6.68843V6.09C19.2526 4.93697 18.3209 4 17.1745 4H12.7269C11.5805 4 10.6488 4.93697 10.6488 6.09V6.68843H6.2002V8.181H7.2144L7.98599 25.4198C7.99892 25.4835 8.33002 27 9.6117 27H20.2877C21.5704 27 21.9015 25.4835 21.9214 25.371L22.6502 8.181H23.7002V6.68843H19.2526ZM18.9501 9.37706H17.4635L17.0002 24.3118H18.4867L18.9501 9.37706ZM14.2067 24.312H15.6932V9.37725H14.2067V24.312ZM12.9001 24.3118L12.4367 9.37706H10.9502L11.4126 24.3118H12.9001Z" fill="#007AFF"/>
</svg>
