<svg fill="none" xmlns="http://www.w3.org/2000/svg" viewBox="0 0 608 453">
  <g clip-path="url(#clip0)">
    <path d="M301.056 453c166.268 0 301.055-9.68 301.055-21.622 0-11.941-134.787-21.622-301.055-21.622C134.787 409.756 0 419.437 0 431.378 0 443.32 134.787 453 301.056 453z" fill="#E6E6E6"/>
    <path d="M536.256 443.487c-49.089-8.836-102.771-7.367-159.08 0 25.665-21.911 47.815-43.822 22.15-65.732 50.063 10.444 57.075 9.387 112.766 0-12.917 21.91 11.247 43.821 24.164 65.732z" fill="#6C63FF"/>
    <path opacity=".2" d="M536.256 443.487c-49.089-8.836-102.771-7.367-159.08 0 25.665-21.911 47.815-43.822 22.15-65.732 50.063 10.444 57.075 9.387 112.766 0-12.917 21.91 11.247 43.821 24.164 65.732z" fill="#DAC5FF"/>
    <path d="M524.281 434.137c-41.699-7.052-87.3-5.88-135.133 0 21.802-17.489 40.618-34.979 18.816-52.468 42.527 8.337 48.484 7.493 95.791 0-10.973 17.489 9.554 34.979 20.526 52.468z" fill="#BF9BFF"/>
    <path d="M508.398 405.958c12.271 0 22.219-10.06 22.219-22.469s-9.948-22.468-22.219-22.468-22.218 10.059-22.218 22.468 9.947 22.469 22.218 22.469z" fill="#2F2E41"/>
    <path d="M407.537 357.429l15.395 2.595 7.698 22.487-22.237 13.839-25.659-38.921h24.803z" fill="#A0616A"/>
    <path d="M451.156 392.024c19.839 0 35.921-16.263 35.921-36.325s-16.082-36.325-35.921-36.325-35.922 16.263-35.922 36.325 16.083 36.325 35.922 36.325z" fill="#A0616A"/>
    <path d="M252.731 223.371s-87.238 9.513-102.632 7.784c-15.395-1.73-22.238-3.46-22.238-3.46s-10.263 13.838-5.131 19.893a37.138 37.138 0 0010.263 8.649s9.408-2.595 16.25 0c6.842 2.594 76.119 13.838 88.093 3.459 11.974-10.379 15.395-36.325 15.395-36.325z" fill="#2F2E41"/>
    <path d="M258.72 416.242s-57.303-16.433-67.566-89.083v-6.919s-11.338 20.114-15.395 24.216c-4.704 4.757-21.382 47.57-20.526 51.894.855 4.324 0 6.054 0 6.054l-24.803-2.594v-7.785s13.256-40.217 14.112-49.731c.855-9.514 32.928-75.678 32.928-75.678s11.973-25.082 32.5 0c20.526 25.082 22.237 42.38 22.237 42.38l26.513 51.893v55.353zM130.43 225.1l-27.369-9.513s-25.658-19.028-19.671 0c5.987 19.027 33.356 60.542 41.053 56.218 7.697-4.325 16.955-15.059 14.892-16.611-2.063-1.552-15.747-12.796-8.905-30.094zM133.738 386.918l-22.093 10.912s-26.717 4.156-11.817 11.95c14.9 7.794 56.004 16.107 58.059 8.833 2.055-7.274 1.24-19.347-.922-19.026-2.161.321-17.061 1.88-23.227-12.669z" fill="#2F2E41"/>
    <path d="M247.602 359.159s-11.118 48.434 7.697 58.812c18.816 10.379 150.528 12.109 160.792-6.919 10.263-19.027 5.131-19.027 5.131-19.027l-27.369-31.137 22.238-1.729s0-6.919-7.698-7.784c-7.697-.865-31.645-9.514-52.171-3.46-20.527 6.054-32.501-12.108-32.501-12.108l-76.119 23.352z" fill="#575A89"/>
    <path d="M233.063 207.804l-14.54 80.435 100.068-12.108 17.96-72.652-103.488 4.325z" fill="#3F3D56"/>
    <path d="M236.056 210.83l-11.974 71.786 91.086-10.811 17.533-65.3-96.645 4.325z" fill="#fff"/>
    <path d="M221.944 289.103l-3.421-.865-1.711 3.459 27.369 76.975 2.574-.995.847-5.058-25.658-73.516z" fill="#B3B3B3"/>
    <path d="M218.523 287.373l27.369 80.435L349.38 352.24l-30.789-76.11-100.068 11.243z" fill="#D0CDE1"/>
    <path d="M232.207 284.779v4.324l76.119-8.649-.855-4.324-75.264 8.649zM233.918 293.427l11.974 33.73 77.83-9.513-13.685-32.001-76.119 7.784z" fill="#3F3D56"/>
    <path d="M331.42 340.997l-2.566-6.919s-19.671-34.595-29.935-27.676c-10.263 6.919 21.382 40.65 21.382 40.65h10.263l.856-6.055zM266.418 346.186l-2.566-10.379s-6.842-32.001 5.132-30.271c11.974 1.73 15.395 32.001 15.395 32.001l-.855 6.919-17.106 1.73z" fill="#A0616A"/>
    <path d="M286.946 341.862s-22.237-3.459-23.093 1.73c-.855 5.189-5.131 83.029 16.25 85.624 21.382 2.595 127.436 13.838 116.317-12.973-11.118-26.812-28.224-23.352-28.224-23.352l-72.698 7.784-8.552-58.813zM354.081 351.807l-22.664-16-14.968 11.676 18.816 20.757 18.816-16.433z" fill="#575A89"/>
    <path opacity=".2" d="M293.359 367.375l3.421 32.866 59.014-3.46-51.317-.865-11.118-28.541z" fill="#000"/>
    <path d="M468.889 405.544c23.617 0 42.763-19.361 42.763-43.244 0-23.884-19.146-43.245-42.763-43.245-23.618 0-42.764 19.361-42.764 43.245 0 23.883 19.146 43.244 42.764 43.244z" fill="#2F2E41"/>
    <path d="M248.883 235.912l53.027-1.867 5.131-19.755-54.737 1.67-3.421 19.952z" fill="#6C63FF"/>
    <path d="M235.199 247.156l80.395-2.595.855-3.46-80.395 2.863-.855 3.192zM233.488 255.806l80.396-2.595.855-3.46-80.396 2.862-.855 3.193zM232.633 262.723l80.395-2.594.856-3.46-80.396 2.862-.855 3.192z" fill="#E6E6E6"/>
  </g>
  <defs>
    <clipPath id="clip0">
      <path d="M0 0h608v453H0V0z" fill="#fff"/>
    </clipPath>
  </defs>
</svg>
