<svg width="604" height="638" viewBox="0 0 604 638" fill="none" xmlns="http://www.w3.org/2000/svg">
<path d="M302 638C135.21 638 0 616.733 0 590.5C0 564.266 135.21 543 302 543C468.79 543 604 564.266 604 590.5C604 616.733 468.79 638 302 638Z" fill="#E9E9E9"/>
<path d="M338.221 580.95L206.221 607.95L203.221 607.65L87.2207 595.95V448.95L229.221 424.95L332.221 436.95L332.251 437.6L332.261 437.92L338.221 580.95Z" fill="#2878AA"/>
<path opacity="0.1" d="M338.219 580.95L206.219 607.95L203.219 607.65V456.95L332.249 437.6L338.219 580.95Z" fill="black"/>
<path opacity="0.05" d="M332.261 437.92L332.221 437.95L203.221 456.95L87.2207 448.95L229.221 424.95L332.221 436.95L332.251 437.6L332.261 437.92Z" fill="black"/>
<path d="M483.219 586.95L351.219 613.95L348.219 613.65L232.219 601.95V454.95L374.219 430.95L477.219 442.95L477.249 443.6L477.259 443.92L483.219 586.95Z" fill="#00426C"/>
<path opacity="0.1" d="M483.219 586.95L351.219 613.95L348.219 613.65V462.95L477.249 443.6L483.219 586.95Z" fill="#3584B7"/>
<path opacity="0.05" d="M477.259 443.92L477.219 443.95L348.219 462.95L232.219 454.95L374.219 430.95L477.219 442.95L477.249 443.6L477.259 443.92Z" fill="black"/>
<path d="M392.221 442.95L260.221 469.95L257.221 469.65L141.221 457.95V310.95L283.221 286.95L386.221 298.95L386.251 299.6L386.261 299.92L392.221 442.95Z" fill="#9ABA19"/>
<path opacity="0.1" d="M392.219 442.95L260.219 469.95L257.219 469.65V318.95L386.249 299.6L392.219 442.95Z" fill="black"/>
<path opacity="0.05" d="M386.261 299.92L386.221 299.95L257.221 318.95L141.221 310.95L283.221 286.95L386.221 298.95L386.251 299.6L386.261 299.92Z" fill="black"/>
<path d="M467.221 449.11L398.331 463.21L396.761 463.05L336.221 456.94V380.22L410.331 367.69L464.091 373.96L464.111 374.3V374.46L467.221 449.11Z" fill="#1F7DA2"/>
<path opacity="0.1" d="M467.22 449.11L398.33 463.21L396.76 463.05V384.4L464.11 374.3L467.22 449.11Z" fill="black"/>
<path opacity="0.05" d="M464.111 374.46L464.091 374.48L396.761 384.4L336.221 380.22L410.331 367.69L464.091 373.96L464.111 374.3V374.46Z" fill="black"/>
<path d="M282.221 300.11L213.331 314.2L211.761 314.05L151.221 307.94V231.22L225.331 218.69L279.091 224.96L279.111 225.3V225.46L282.221 300.11Z" fill="#D89F0E"/>
<path opacity="0.1" d="M282.22 300.11L213.33 314.2L211.76 314.05V235.4L279.11 225.3L282.22 300.11Z" fill="black"/>
<path opacity="0.05" d="M279.111 225.46L279.091 225.48L211.761 235.4L151.221 231.22L225.331 218.69L279.091 224.96L279.111 225.3V225.46Z" fill="black"/>
<path d="M403.219 297.11L334.329 311.2L332.759 311.05L272.219 304.94V228.22L346.329 215.69L400.089 221.96L400.109 222.3V222.46L403.219 297.11Z" fill="#4D8037"/>
<path opacity="0.1" d="M403.22 297.11L334.33 311.2L332.76 311.05V232.4L400.11 222.3L403.22 297.11Z" fill="black"/>
<path opacity="0.05" d="M400.109 222.46L400.089 222.48L332.759 232.4L272.219 228.22L346.329 215.69L400.089 221.96L400.109 222.3V222.46Z" fill="black"/>
<path d="M439.219 220.11L370.329 234.2L368.759 234.05L308.219 227.94V151.22L382.329 138.69L436.089 144.96L436.109 145.3V145.46L439.219 220.11Z" fill="#00426C"/>
<path opacity="0.1" d="M439.22 220.11L370.33 234.2L368.76 234.05V155.4L436.11 145.3L439.22 220.11Z" fill="black"/>
<path opacity="0.05" d="M436.109 145.46L436.089 145.48L368.759 155.4L308.219 151.22L382.329 138.69L436.089 144.96L436.109 145.3V145.46Z" fill="black"/>
<path d="M312.221 223.11L243.331 237.2L241.761 237.05L181.221 230.94V154.22L255.331 141.69L309.091 147.96L309.111 148.3V148.46L312.221 223.11Z" fill="#9ABA19"/>
<path opacity="0.1" d="M312.22 223.11L243.33 237.2L241.76 237.05V158.4L309.11 148.3L312.22 223.11Z" fill="black"/>
<path opacity="0.05" d="M309.111 148.46L309.091 148.48L241.761 158.4L181.221 154.22L255.331 141.69L309.091 147.96L309.111 148.3V148.46Z" fill="black"/>
<path d="M386 147.172L303.437 164L301.556 163.809L229 156.517V64.9539L317.819 49.9998L382.249 57.4828L382.273 57.8886V58.0795L386 147.172Z" fill="#1F7DA2"/>
<path opacity="0.1" d="M386 147.189L303.872 164L302 163.809V70.0411L382.292 57.9998L386 147.189Z" fill="black"/>
<path opacity="0.05" d="M382 58.1027L381.976 58.1266L301.426 69.9998L229 64.9968L317.661 49.9998L381.976 57.5043L382 57.9112V58.1027Z" fill="black"/>
<path d="M352.047 58.6692L302.542 69.408L301.41 69.3059L257.75 65.4117L257.105 10.1291L310.383 0.477841L349.161 4.54427L349.178 4.7891L349.18 4.90439L352.047 58.6692Z" fill="#D89F0E"/>
<path opacity="0.1" d="M352.049 58.7942L302.237 69.4116L301.098 69.311L300.445 13.3346L349.174 5.57704L352.049 58.7942Z" fill="black"/>
<path opacity="0.05" d="M349.2 4.97338L349.186 4.98818L300.76 12.8034L257.107 10.2573L310.395 0.477706L349.182 4.60815L349.199 4.85645L349.2 4.97338Z" fill="black"/>
<path d="M424.309 147.988L410.805 144.661C405.651 144.661 400.56 143.509 395.903 141.288C391.246 139.067 387.138 135.833 383.876 131.82C380.614 127.807 378.281 123.116 377.045 118.085C375.808 113.054 375.7 107.809 376.727 102.731C376.727 90.6107 381.516 78.987 390.04 70.4169C398.565 61.8467 410.126 57.032 422.182 57.032H422.182C428.151 57.032 434.062 58.214 439.577 60.5106C445.092 62.8072 450.102 66.1733 454.323 70.4169C458.544 74.6604 461.892 79.6982 464.177 85.2426C466.461 90.787 467.637 96.7295 467.637 102.731C469.376 108.846 469.488 115.313 467.961 121.485C466.433 127.657 463.32 133.318 458.933 137.9C454.546 142.483 449.039 145.826 442.962 147.597C436.886 149.367 430.454 149.502 424.309 147.988Z" fill="#252426"/>
<path d="M546.31 105.234C544.664 103.585 542.709 102.278 540.557 101.385C538.405 100.492 536.098 100.033 533.768 100.032C531.439 100.031 529.132 100.49 526.979 101.381C524.827 102.272 522.871 103.579 521.223 105.226C519.576 106.873 518.269 108.829 517.378 110.982C516.487 113.134 516.029 115.441 516.029 117.771C516.03 120.101 516.49 122.408 517.382 124.56C518.275 126.712 519.583 128.667 521.231 130.313L546.31 155.393L571.39 130.313C573.038 128.667 574.346 126.712 575.239 124.56C576.131 122.408 576.591 120.101 576.591 117.771C576.592 115.441 576.134 113.134 575.243 110.982C574.351 108.829 573.045 106.873 571.397 105.226C569.75 103.579 567.794 102.272 565.642 101.381C563.489 100.49 561.182 100.031 558.852 100.032C556.523 100.033 554.216 100.492 552.064 101.385C549.912 102.278 547.957 103.585 546.31 105.234Z" fill="#B10505"/>
<path d="M557.771 126.047C556.784 125.997 555.809 126.272 554.993 126.829C554.177 127.386 553.566 128.195 553.252 129.132H549.606L546.943 121.124C546.845 120.824 546.654 120.563 546.398 120.377C546.142 120.192 545.834 120.093 545.518 120.093H545.49C545.17 120.097 544.86 120.206 544.606 120.402C544.353 120.598 544.17 120.871 544.084 121.18L539.913 135.743L535.01 106.29C534.953 105.949 534.78 105.638 534.521 105.409C534.262 105.18 533.933 105.048 533.587 105.033C533.242 105.019 532.903 105.124 532.626 105.331C532.349 105.537 532.151 105.833 532.066 106.168L527.098 129.132H521.529C521.131 129.132 520.75 129.29 520.469 129.571C520.187 129.853 520.029 130.234 520.029 130.632C520.029 131.03 520.187 131.412 520.469 131.693C520.75 131.975 521.131 132.133 521.529 132.133H528.279C528.613 132.133 528.938 132.022 529.201 131.816C529.464 131.61 529.651 131.322 529.732 130.998L533.238 113.913L538.047 142.785C538.102 143.121 538.271 143.428 538.525 143.655C538.779 143.882 539.104 144.015 539.444 144.032H539.528C539.854 144.032 540.171 143.925 540.432 143.729C540.692 143.533 540.882 143.257 540.972 142.944L545.631 126.666L547.103 131.101C547.203 131.4 547.394 131.66 547.65 131.845C547.905 132.03 548.212 132.131 548.528 132.133H553.318C553.604 132.891 554.09 133.559 554.725 134.064C555.359 134.569 556.118 134.894 556.921 135.003C557.724 135.112 558.542 135.003 559.289 134.686C560.035 134.368 560.682 133.856 561.16 133.201C561.639 132.547 561.933 131.775 562.009 130.968C562.086 130.16 561.943 129.347 561.596 128.614C561.248 127.882 560.71 127.256 560.037 126.804C559.363 126.352 558.581 126.091 557.771 126.047Z" fill="#FBFBFB"/>
<path d="M463.647 590.895L470.368 597.616C470.368 597.616 494.265 610.311 491.278 593.135C490.461 588.029 490.288 582.841 490.763 577.692C491.38 570.505 492.805 563.41 495.012 556.543L472.608 552.062C476.335 563.772 470.196 578.513 466.365 586.018C464.82 589.043 463.647 590.895 463.647 590.895Z" fill="#BF9874"/>
<path d="M412.763 577.311C412.93 579.611 413.214 581.902 413.614 584.173C413.614 584.173 432.283 596.869 433.777 582.68C434.748 573.435 432.552 569.26 430.894 567.476L430.868 567.447C429.872 566.394 429.31 565.003 429.296 563.553V546.835L412.867 552.062L413.614 566.251C412.509 569.201 412.494 573.607 412.763 577.311Z" fill="#BF9874"/>
<path opacity="0.05" d="M463.648 590.895L470.369 597.616C470.369 597.616 494.266 610.311 491.279 593.135C490.462 588.029 490.288 582.841 490.763 577.692C485.529 576.922 479.33 582.68 479.33 582.68C470.578 595.032 468.218 590.357 466.366 586.018C464.82 589.043 463.648 590.895 463.648 590.895Z" fill="black"/>
<path d="M479.331 584.173C479.331 584.173 489.785 574.465 495.013 581.933C500.24 589.401 494.266 595.375 514.429 610.311C534.592 625.246 514.429 634.954 500.987 628.98C487.545 623.006 459.914 607.323 459.914 607.323C459.914 607.323 459.914 582.68 463.648 583.427C467.382 584.173 466.635 602.096 479.331 584.173Z" fill="#3F3D56"/>
<path opacity="0.05" d="M412.763 577.31C412.93 579.611 413.214 581.901 413.614 584.173C413.614 584.173 432.283 596.868 433.777 582.68C434.748 573.434 432.552 569.26 430.894 567.475C430.246 566.986 429.476 566.682 428.668 566.598C427.86 566.514 427.044 566.652 426.309 566.997C423.322 565.668 420.036 567.886 417.318 570.754C415.476 572.696 413.94 574.906 412.763 577.31Z" fill="black"/>
<path d="M426.308 568.491C426.308 568.491 434.522 564.011 436.016 584.174C437.509 604.337 438.256 602.096 438.256 602.096C438.256 602.096 445.724 620.019 430.042 617.778C414.359 615.538 406.892 614.045 407.638 605.083C408.089 599.682 409.353 591.839 410.286 586.46C411.175 581.132 413.62 576.186 417.314 572.245C420.039 569.376 423.321 567.164 426.308 568.491Z" fill="#3F3D56"/>
<path d="M399.424 472.904C399.424 472.904 396.437 504.269 399.424 513.23C401.239 518.666 402.225 532.362 402.718 542.287C403.046 548.709 403.158 553.556 403.158 553.556C417.347 568.491 433.776 553.556 433.776 553.556C433.776 553.556 433.776 548.313 433.657 540.622C433.5 530.413 433.134 515.873 432.282 503.522C431.52 494.299 432.152 485.015 434.157 475.981C435.528 470.316 436.496 464.562 437.054 458.76L439.003 437.806C445.724 390.759 453.939 389.265 453.939 389.265C454.208 389.474 454.469 389.706 454.738 389.945C466.216 400.415 473.908 437.447 477.813 461.411C479.822 473.74 480.823 482.612 480.823 482.612C480.823 482.612 471.115 522.938 471.861 528.165C472.205 530.592 471.264 536.731 470.159 542.6C468.882 549.374 467.381 555.796 467.381 555.796C486.05 575.959 498.745 560.277 498.745 560.277L501.254 548.283L515.921 478.131C515.921 478.131 522.642 434.072 515.921 399.72C513.751 388.939 512.261 378.032 511.463 367.064C510.623 354.683 508.63 342.408 505.511 330.397C504.6 326.842 503.589 323.315 502.479 319.815C502.479 319.815 474.438 314.939 448.032 314.939C428.227 314.939 409.349 317.679 403.905 327.283C402.65 329.493 401.51 331.709 400.485 333.929C391.031 354.249 390.747 375.121 400.171 395.986C410.626 419.136 399.424 472.904 399.424 472.904Z" fill="#FFAD2B"/>
<path d="M462.153 201.825C462.153 201.825 501.732 161.499 471.861 164.486C465.088 165.166 460.502 163.956 457.463 161.686C453.998 159.102 452.542 155.144 452.139 151.014C451.317 142.777 454.685 133.868 454.685 133.868C454.685 133.868 414.359 101.757 422.574 142.083C423.476 146.181 424.001 150.353 424.142 154.547C424.276 163.105 421.461 166.383 417.511 167.727C410.849 170.005 400.947 166.816 396.437 174.194C388.222 187.636 462.153 201.825 462.153 201.825Z" fill="#9D7E62"/>
<path opacity="0.1" d="M462.153 201.825C462.153 201.825 501.732 161.499 471.861 164.486C465.088 165.166 460.502 163.956 457.463 161.686C453.998 159.102 452.542 155.144 452.139 151.014C451.317 142.777 454.685 133.868 454.685 133.868C454.685 133.868 414.359 101.757 422.574 142.083C423.476 146.181 424.001 150.353 424.142 154.547C424.276 163.105 421.461 166.383 417.511 167.727C410.849 170.005 400.947 166.816 396.437 174.194C388.222 187.636 462.153 201.825 462.153 201.825Z" fill="black"/>
<path opacity="0.05" d="M462.153 201.824C462.153 201.824 501.732 161.499 471.861 164.486C465.088 165.165 460.502 163.955 457.463 161.685C463.243 171.274 469.748 188.517 440.496 186.889C413.725 185.403 414.18 174.731 417.511 167.727C410.849 170.004 400.947 166.816 396.437 174.194C388.222 187.636 462.153 201.824 462.153 201.824Z" fill="black"/>
<path opacity="0.1" d="M399.425 336.991C406.221 345.825 492.846 334.243 505.512 330.397C504.601 326.842 503.59 323.315 502.48 319.815C502.48 319.815 474.438 314.939 448.032 314.939C428.228 314.939 409.35 317.679 403.906 327.283C402.651 329.493 401.511 331.709 400.485 333.929C400.007 336.603 399.425 336.991 399.425 336.991Z" fill="black"/>
<path d="M453.939 157.765C453.939 157.765 504.346 161.873 506.587 181.289C508.728 199.85 515.175 251.112 515.175 251.112C515.175 251.112 522.642 292.185 494.265 272.769L494.629 273.862C499.746 289.601 503.236 305.824 505.044 322.275C505.332 324.723 505.91 326.653 506.96 327.283C510.694 329.524 406.892 344.459 399.424 334.751C399.424 334.751 401.665 333.257 400.918 316.082C400.171 298.906 406.892 280.983 406.892 280.983C406.892 280.983 412.866 263.061 404.652 245.885C396.437 228.709 399.424 223.482 399.424 223.482L371.047 201.825C371.047 201.825 364.919 191.319 376.122 178.351C379.486 174.515 383.573 171.379 388.15 169.124C392.727 166.869 397.703 165.539 402.794 165.209L422.368 163.817C422.368 163.817 400.918 186.89 441.244 189.13C481.57 191.37 453.939 157.765 453.939 157.765Z" fill="#F9F9F9"/>
<path opacity="0.05" d="M487.545 198.838C487.545 198.838 486.051 210.786 489.038 214.52C492.025 218.254 492.772 235.43 489.038 245.884" fill="black"/>
<path opacity="0.1" d="M454.738 389.945C466.216 400.415 473.908 437.447 477.814 461.411C483.25 428.053 460.66 372.836 460.66 372.836L454.738 389.945Z" fill="black"/>
<path opacity="0.1" d="M467.38 555.796C486.05 575.959 498.745 560.277 498.745 560.277L501.254 548.283C494.197 551.95 482.271 554.795 470.158 542.6C468.881 549.374 467.38 555.796 467.38 555.796Z" fill="black"/>
<path opacity="0.1" d="M402.717 542.287C403.046 548.709 403.158 553.555 403.158 553.555C417.346 568.491 433.775 553.555 433.775 553.555C433.775 553.555 433.775 548.313 433.656 540.621C427.495 544.534 416.42 548.843 402.717 542.287Z" fill="black"/>
<path d="M436.78 224.228H480.061C482.132 224.228 483.811 225.907 483.811 227.978V241.388C483.811 243.459 482.132 245.138 480.061 245.138H436.78C434.709 245.138 433.03 243.459 433.03 241.388V227.978C433.03 225.907 434.709 224.228 436.78 224.228Z" fill="#CDD0DB"/>
<path opacity="0.05" d="M436.78 224.228H480.061C482.132 224.228 483.811 225.907 483.811 227.978V241.388C483.811 243.459 482.132 245.138 480.061 245.138H436.78C434.709 245.138 433.03 243.459 433.03 241.388V227.978C433.03 225.907 434.709 224.228 436.78 224.228Z" fill="black"/>
<path d="M436.78 224.975H480.061C482.132 224.975 483.811 226.654 483.811 228.725V242.135C483.811 244.206 482.132 245.885 480.061 245.885H436.78C434.709 245.885 433.03 244.206 433.03 242.135V228.725C433.03 226.654 434.709 224.975 436.78 224.975Z" fill="#3F3D56"/>
<path d="M443.857 237.297C442.62 237.297 441.617 236.294 441.617 235.056C441.617 233.819 442.62 232.816 443.857 232.816C445.095 232.816 446.098 233.819 446.098 235.056C446.098 236.294 445.095 237.297 443.857 237.297Z" fill="#9DA7C0"/>
<path opacity="0.05" d="M505.423 257.34C504.749 255.333 503.645 253.498 502.188 251.962C500.731 250.427 498.956 249.229 496.987 248.452C493.834 247.283 491.244 244.957 489.743 241.948C486.798 235.43 481.57 228.709 468.128 233.189C454.686 237.67 471.862 240.657 471.862 240.657C471.862 240.657 441.245 236.176 453.193 245.138C465.141 254.099 480.077 259.326 480.077 259.326L487.431 267.113C488.485 268.251 489.768 269.153 491.195 269.759C492.622 270.366 494.162 270.664 495.712 270.633C497.263 270.602 498.79 270.243 500.192 269.581C501.594 268.918 502.84 267.966 503.848 266.787C504.923 265.493 505.635 263.936 505.912 262.276C506.188 260.617 506.02 258.913 505.423 257.34Z" fill="black"/>
<path d="M506.169 255.847C505.496 253.84 504.392 252.005 502.934 250.469C501.477 248.934 499.702 247.736 497.733 246.959C494.58 245.789 491.99 243.464 490.489 240.455C487.544 233.936 482.316 227.215 468.875 231.696C455.433 236.177 472.608 239.164 472.608 239.164C472.608 239.164 441.991 234.683 453.939 243.644C465.887 252.606 480.823 257.833 480.823 257.833L488.177 265.62C489.231 266.758 490.514 267.659 491.941 268.266C493.368 268.873 494.908 269.17 496.459 269.14C498.009 269.109 499.536 268.75 500.938 268.088C502.34 267.425 503.586 266.473 504.594 265.294C505.669 263.999 506.381 262.443 506.658 260.783C506.934 259.123 506.766 257.42 506.169 255.847Z" fill="#BF9874"/>
<path opacity="0.05" d="M400.919 271.275L406.146 283.97L412.837 279.048L431.537 265.3L444.232 257.086C462.154 243.644 444.232 241.404 444.232 241.404C450.953 238.416 444.232 235.429 444.232 235.429C420.335 230.202 424.816 249.618 424.816 249.618L409.678 257.467L404.653 260.073L400.919 271.275Z" fill="black"/>
<path d="M399.425 269.781L404.652 282.477L411.343 277.555L430.042 263.807L442.738 255.593C460.66 242.151 442.738 239.91 442.738 239.91C449.459 236.923 442.738 233.936 442.738 233.936C418.841 228.709 423.321 248.125 423.321 248.125L408.184 255.974L403.158 258.58L399.425 269.781Z" fill="#BF9874"/>
<path opacity="0.05" d="M399.425 269.781L404.653 282.476L411.344 277.555C405.287 277.772 398.133 274.844 408.185 255.973L403.159 258.58L399.425 269.781Z" fill="black"/>
<path d="M371.794 194.357L370.352 200.232L374.781 243.644L378.515 272.768C378.515 272.768 380.008 292.185 397.184 286.957C414.36 281.73 415.854 276.502 415.854 276.502C415.854 276.502 391.21 284.717 406.892 255.593C406.892 255.593 397.931 260.073 399.424 248.125C400.918 236.177 399.424 215.267 399.424 215.267L371.794 194.357Z" fill="#F9F9F9"/>
<path opacity="0.05" d="M402.412 122.667C402.412 129.949 404.887 137.016 409.431 142.707C413.976 148.397 420.319 152.375 427.421 153.986C428.497 150.88 429.258 147.788 428.474 144.644C426.958 138.543 419.916 134.092 420.7 127.857C420.766 127.155 421.01 126.481 421.41 125.9C422.985 123.824 426.196 124.855 428.75 125.37C432.079 125.922 435.494 125.25 438.366 123.479C441.238 121.708 443.371 118.958 444.373 115.737C447.241 118.558 450.833 120.531 454.752 121.439C458.672 122.347 462.766 122.155 466.582 120.882C466.118 112.533 462.415 104.695 456.261 99.0337C450.107 93.3726 441.987 90.3354 433.629 90.5678C425.27 90.8003 417.332 94.2842 411.503 100.279C405.673 106.273 402.411 114.305 402.412 122.667Z" fill="black"/>
<path opacity="0.3" d="M500.986 625.993C509.713 629.871 521.269 627.138 522.787 620.658C524.616 629.214 510.955 633.41 500.986 628.98C487.544 623.005 459.914 607.323 459.914 607.323C459.914 607.323 459.914 606.163 459.952 604.358C460.756 604.814 487.745 620.108 500.986 625.993Z" fill="white"/>
<path d="M402.412 122.667C402.417 131.18 405.802 139.343 411.824 145.361C417.845 151.379 426.01 154.76 434.523 154.76C443.037 154.76 451.202 151.379 457.223 145.361C463.245 139.343 466.63 131.18 466.635 122.667C466.635 122.069 466.62 121.472 466.582 120.882C466.118 112.533 462.415 104.695 456.261 99.0337C450.107 93.3726 441.988 90.3354 433.629 90.5678C425.271 90.8003 417.333 94.2842 411.503 100.279C405.673 106.273 402.412 114.305 402.412 122.667Z" fill="#BF9874"/>
<path opacity="0.3" d="M407.677 604.653C408.538 611.371 415.989 612.783 430.041 614.791C437.188 615.812 439.52 612.644 439.949 608.895C440.416 613.696 439.053 619.065 430.041 617.778C414.359 615.538 406.891 614.044 407.638 605.083C407.65 604.943 407.664 604.796 407.677 604.653Z" fill="white"/>
<path d="M378.529 90.032C366.655 90.032 357.029 80.4061 357.029 68.532C357.029 56.6579 366.655 47.032 378.529 47.032C390.403 47.032 400.029 56.6579 400.029 68.532C400.029 80.4061 390.403 90.032 378.529 90.032Z" fill="#252426"/>
<path d="M398.03 56.8555C398.031 53.7175 397.319 50.6183 395.944 47.7814C394.568 44.9446 392.565 42.4408 390.078 40.4508C387.59 38.4607 384.681 37.034 381.56 36.2736C378.439 35.5132 375.184 35.4379 372.029 36.0534C374.814 34.7741 377.845 34.0862 380.922 34.0351C383.999 33.9839 387.052 34.5708 389.879 35.7568C392.707 36.9428 395.244 38.7009 397.322 40.9149C399.401 43.1288 400.974 45.748 401.937 48.5993C402.9 51.4506 403.232 54.4689 402.91 57.4545C402.588 60.4402 401.62 63.3251 400.069 65.9184C398.519 68.5117 396.421 70.7543 393.916 72.4977C391.41 74.2412 388.554 75.4459 385.536 76.032C389.269 74.3219 392.427 71.6105 394.639 68.2147C396.852 64.819 398.028 60.8791 398.03 56.8555Z" fill="#252426"/>
<path d="M407.667 71.2922L436.778 66.032L459.143 79.9246C464.642 83.34 469.034 88.2424 471.799 94.0504C474.564 99.8583 475.585 106.328 474.742 112.692L452.332 107.049L447.328 94.6025L441.337 104.28L426.622 100.574L392.745 142.032L390.029 101.983L407.667 71.2922Z" fill="#252426"/>
</svg>
