<svg width="676" height="676" fill="none" xmlns="http://www.w3.org/2000/svg"><g clip-path="url(#clip0)"><path d="M676 338a336.855 336.855 0 01-27.22 133.1l-1.12 2.58a338.559 338.559 0 01-368.31 197.25c-2.03-.36-4.057-.733-6.08-1.12a334.979 334.979 0 01-61.14-18.03 344.682 344.682 0 01-9.56-4.01c-2.16-.94-4.32-1.91-6.46-2.91A338.413 338.413 0 010 338C0 151.33 151.33 0 338 0s338 151.33 338 338z" fill="#6C63FF"/><path opacity=".2" d="M279.35 670.93c-2.03-.36-4.057-.733-6.08-1.12-1.32-38.31-5.85-116.94-21.3-199.29-8.45-45.07-20.18-91.27-36.45-132.57a412.694 412.694 0 00-19.07-41.84c-16.44-31.05-36.38-57.19-60.56-74.9l3.56-4.86c20.11 14.74 38.183 35.433 54.22 62.08 4.81 7.98 9.43 16.493 13.86 25.54 4.75 9.68 9.28 19.957 13.59 30.83 2.75 6.92 5.406 14.08 7.97 21.48 11.16 32.13 20.646 68.79 28.46 109.98 1.73 9.1 3.376 18.423 4.94 27.97 12.11 73.97 15.76 142.36 16.86 176.7zM202.57 647.77c-2.16-.94-4.32-1.91-6.46-2.91-2.09-22.7-5.93-50.86-12.95-77.59a254.64 254.64 0 00-11.81-35.2c-8.01-18.75-18.38-34.69-31.79-44.52l3.56-4.85c14.04 10.28 24.87 26.53 33.24 45.54 9.43 21.42 15.72 46.35 19.91 70.17 3.11 17.69 5.07 34.78 6.3 49.36zM102.261 221.07c16.618 0 30.089-13.471 30.089-30.088 0-16.618-13.471-30.089-30.089-30.089-16.617 0-30.088 13.471-30.088 30.089 0 16.617 13.471 30.088 30.088 30.088zM111.952 480.079c16.617 0 30.088-13.471 30.088-30.088 0-16.618-13.471-30.089-30.088-30.089-16.618 0-30.089 13.471-30.089 30.089 0 16.617 13.471 30.088 30.089 30.088zM221.714 241.521c-6.38 35.998 7.705 68.593 7.705 68.593s24.43-25.769 30.81-61.766c6.381-35.997-7.704-68.592-7.704-68.592s-24.43 25.768-30.811 61.765z" fill="#000"/><path opacity=".2" d="M121.718 326.971c34.335 12.555 68.837 4.498 68.837 4.498s-21.166-28.413-55.501-40.968c-34.335-12.555-68.837-4.498-68.837-4.498s21.166 28.413 55.501 40.968zM115.895 556.333c24.066 8.8 48.283 3.059 48.283 3.059s-14.802-20.008-38.868-28.808c-24.066-8.8-48.283-3.06-48.283-3.06s14.802 20.009 38.868 28.809z" fill="#000"/><path d="M337.306 412.849c72.775 0 131.77-58.996 131.77-131.77 0-72.775-58.995-131.77-131.77-131.77-72.774 0-131.77 58.995-131.77 131.77 0 72.774 58.996 131.77 131.77 131.77z" fill="#D0CDE1"/><path d="M285.833 381.965s16.471 78.239 16.471 86.474c0 8.236 78.239 45.296 78.239 45.296l70.003-12.353 24.707-74.121s-41.179-61.767-41.179-86.474l-148.241 41.178z" fill="#D0CDE1"/><path d="M648.78 471.1l-1.12 2.58a338.561 338.561 0 01-368.31 197.25c-2.03-.36-4.056-.733-6.08-1.12a334.979 334.979 0 01-61.14-18.03 342.916 342.916 0 01-9.56-4.01c-2.16-.94-4.32-1.91-6.46-2.91a337.571 337.571 0 01-55.25-32.28l-15.62-45.31 8.78-6.7 18.06-13.79 19.27-14.71 5.01-3.83 75.61-57.72 5.58-4.26 39.3-30 .01-.01s42.5 69.25 104.27 48.66c61.77-20.59 60.42-79.63 60.42-79.63l187.23 65.82zM223.035 174.916s41.837-90.646 122.024-69.727c80.186 20.918 125.509 52.295 128.995 83.673 3.487 31.377-1.743 78.443-1.743 78.443s-8.716-64.498-64.498-50.552c-55.782 13.945-142.941 3.486-142.941 3.486l-13.946 125.51s-15.688-22.662-33.12-8.716c-17.432 13.945-50.553-134.226 5.229-162.117z" fill="#2F2E41"/><path d="M212.13 651.78a344.682 344.682 0 01-9.56-4.01c-2.16-.94-4.32-1.91-6.46-2.91a338.827 338.827 0 01-87.59-58.7c9.19-12.52 16.72-18.89 16.72-18.89h61.77l9.26 31.14 15.86 53.37zM594.67 464.32l52.99 9.36a337.915 337.915 0 01-56.76 88.57l3.77-97.93z" fill="#2F2E41"/></g><defs><clipPath id="clip0"><path fill="#fff" d="M0 0h676v676H0z"/></clipPath></defs></svg>