<svg width="448" height="376" viewBox="0 0 448 376" fill="none" xmlns="http://www.w3.org/2000/svg">
<g clip-path="url(#clip0)">
<path d="M119.324 228.582C118.118 228.582 116.899 228.563 115.703 228.526L115.73 227.658C117.448 227.711 119.2 227.726 120.926 227.702L120.938 228.571C120.401 228.579 119.863 228.582 119.324 228.582ZM126.169 228.381L126.118 227.513C127.838 227.412 129.58 227.269 131.296 227.09L131.387 227.954C129.658 228.135 127.903 228.279 126.169 228.381ZM110.476 228.245C108.742 228.113 106.99 227.939 105.267 227.727L105.373 226.865C107.082 227.074 108.822 227.247 110.543 227.379L110.476 228.245ZM136.579 227.29L136.448 226.431C138.157 226.172 139.879 225.871 141.565 225.536L141.734 226.388C140.035 226.725 138.301 227.029 136.579 227.29ZM100.088 226.972C98.3743 226.682 96.6449 226.348 94.9475 225.98L95.1319 225.13C96.8164 225.496 98.5325 225.827 100.233 226.115L100.088 226.972ZM146.844 225.25L146.636 224.406C148.313 223.992 150 223.534 151.649 223.045L151.896 223.878C150.234 224.371 148.535 224.833 146.844 225.25ZM89.8589 224.752C88.1782 224.305 86.487 223.814 84.8321 223.29L85.094 222.462C86.7364 222.981 88.4147 223.469 90.0822 223.912L89.8589 224.752ZM156.879 222.274L156.594 221.454C158.222 220.888 159.859 220.276 161.461 219.636L161.783 220.443C160.17 221.088 158.52 221.704 156.879 222.274H156.879ZM79.8651 221.594C78.2329 220.994 76.5905 220.347 74.9839 219.67L75.3215 218.869C76.9157 219.541 78.5454 220.183 80.1653 220.778L79.8651 221.594ZM166.587 218.392L166.227 217.601C167.79 216.891 169.361 216.133 170.897 215.348L171.293 216.122C169.745 216.913 168.162 217.676 166.587 218.392H166.587ZM175.89 213.638L175.459 212.884C176.959 212.029 178.455 211.13 179.907 210.212L180.371 210.946C178.909 211.871 177.401 212.777 175.89 213.638H175.89ZM184.725 208.051L184.228 207.339C185.64 206.353 187.048 205.32 188.415 204.27L188.945 204.96C187.568 206.018 186.148 207.058 184.725 208.051ZM52.2022 206.827C50.7988 205.808 49.3969 204.741 48.0351 203.654L48.5777 202.975C49.929 204.053 51.3203 205.112 52.7129 206.123L52.2022 206.827ZM193.019 201.679L192.459 201.015C193.775 199.905 195.084 198.748 196.351 197.577L196.941 198.215C195.665 199.396 194.345 200.561 193.019 201.679H193.019ZM44.0179 200.295C42.7109 199.151 41.4124 197.961 40.1587 196.758L40.7607 196.13C42.0051 197.325 43.2936 198.506 44.5907 199.641L44.0179 200.295ZM200.703 194.575L200.084 193.965C201.297 192.737 202.496 191.465 203.649 190.186L204.295 190.768C203.134 192.057 201.925 193.337 200.703 194.575ZM36.4654 193.049C35.2662 191.789 34.0819 190.486 32.9453 189.177L33.6021 188.608C34.73 189.907 35.9052 191.199 37.0954 192.45L36.4654 193.049ZM207.711 186.8L207.039 186.249C208.135 184.916 209.214 183.54 210.247 182.16L210.943 182.68C209.902 184.071 208.815 185.458 207.711 186.8L207.711 186.8ZM29.6059 185.15C28.5291 183.79 27.4687 182.386 26.4542 180.977L27.1598 180.469C28.1667 181.867 29.2189 183.261 30.2878 184.611L29.6059 185.15ZM213.984 178.416L213.264 177.928C214.234 176.501 215.184 175.032 216.087 173.561L216.828 174.016C215.918 175.498 214.961 176.978 213.984 178.416L213.984 178.416ZM23.4972 176.665C22.5498 175.213 21.6225 173.719 20.7409 172.224L21.4898 171.782C22.3649 173.266 23.2851 174.749 24.2253 176.189L23.4972 176.665ZM219.468 169.49L218.707 169.07C219.542 167.56 220.353 166.009 221.118 164.46L221.898 164.846C221.127 166.406 220.309 167.968 219.468 169.49ZM224.112 160.094L223.315 159.745C224.008 158.163 224.673 156.544 225.293 154.931L226.105 155.242C225.48 156.868 224.81 158.5 224.112 160.094ZM13.7346 158.219C13.068 156.62 12.4297 154.984 11.8374 153.356L12.6547 153.059C13.2423 154.674 13.8757 156.297 14.537 157.884L13.7346 158.219ZM227.872 150.303L227.046 150.029C227.589 148.395 228.101 146.725 228.568 145.064L229.405 145.299C228.934 146.972 228.418 148.656 227.872 150.303ZM10.1625 148.398C9.6452 146.742 9.15908 145.05 8.71774 143.368L9.5588 143.147C9.99674 144.816 10.4793 146.495 10.9925 148.139L10.1625 148.398ZM230.706 140.23L229.859 140.033C230.248 138.358 230.604 136.648 230.917 134.95L231.772 135.107C231.457 136.818 231.098 138.542 230.706 140.23V140.23ZM7.50691 138.277C7.14433 136.58 6.81615 134.85 6.53169 133.136L7.38931 132.994C7.67186 134.695 7.99749 136.411 8.35731 138.096L7.50691 138.277ZM232.6 129.941L231.738 129.823C231.972 128.121 232.17 126.385 232.326 124.663L233.192 124.742C233.035 126.476 232.836 128.225 232.6 129.941V129.941ZM5.79338 127.956C5.58832 126.236 5.41998 124.484 5.29282 122.748L6.1602 122.685C6.28608 124.407 6.45337 126.146 6.65694 127.854L5.79338 127.956ZM233.546 119.522L232.677 119.483C232.754 117.761 232.794 116.014 232.794 114.291H233.663C233.663 116.027 233.624 117.787 233.546 119.522ZM5.02938 117.522C4.99966 116.456 4.9846 115.369 4.98438 114.291C4.98438 113.622 4.99011 112.955 5.00157 112.289L5.87107 112.304C5.85961 112.965 5.85388 113.627 5.85388 114.291C5.85409 115.361 5.86916 116.44 5.89846 117.498L5.02938 117.522ZM6.07741 107.115L5.20961 107.061C5.31808 105.324 5.46795 103.57 5.65455 101.847L6.51896 101.941C6.33363 103.651 6.18524 105.391 6.0774 107.115H6.07741ZM232.232 101.813C232.059 100.099 231.82 99.2638 231.568 97.5578L232.428 97.4309C232.682 99.1499 232.9 100.462 233.075 102.188L232.232 101.813ZM7.1959 96.7929L6.33659 96.66C6.603 94.9406 6.91251 93.2077 7.25662 91.5087L8.10873 91.681C7.76736 93.367 7.46019 95.0869 7.1959 96.7929ZM230.69 92.4404C230.359 90.745 229.985 89.0383 229.578 87.368L230.423 87.1626C230.832 88.8456 231.209 90.5655 231.544 92.2736L230.69 92.4404ZM9.25545 86.6166L8.41206 86.4053C8.83429 84.7219 9.30194 83.0246 9.80207 81.3602L10.6346 81.6102C10.1385 83.2618 9.67449 84.9462 9.25545 86.6166ZM228.233 82.352C227.748 80.6971 227.218 79.0325 226.658 77.4037L227.48 77.121C228.045 78.7623 228.579 80.4401 229.068 82.1075L228.233 82.352ZM12.2486 76.6591L11.4284 76.3709C12.0062 74.728 12.6301 73.0771 13.2826 71.4642L14.0889 71.7902C13.4412 73.3905 12.822 75.0288 12.2486 76.6591ZM224.856 72.5331C224.222 70.9336 223.543 69.3283 222.837 67.7617L223.63 67.4048C224.341 68.9835 225.026 70.6011 225.665 72.2126L224.856 72.5331ZM16.1512 67.0129L15.3611 66.65C16.0873 65.0692 16.8602 63.4839 17.6584 61.9383L18.4311 62.3368C17.6388 63.8708 16.8719 65.444 16.1512 67.0129ZM220.601 63.0863C219.823 61.5519 218.998 60.0144 218.15 58.517L218.907 58.0888C219.762 59.5979 220.592 61.1471 221.376 62.6933L220.601 63.0863ZM20.9235 57.7718L20.1699 57.3381C21.0372 55.8326 21.952 54.3256 22.8888 52.8593L23.6216 53.327C22.692 54.7822 21.784 56.2777 20.9235 57.7718ZM215.493 54.0627C214.574 52.6007 213.612 51.1442 212.633 49.7335L213.347 49.2383C214.334 50.6598 215.303 52.1273 216.229 53.6005L215.493 54.0627ZM26.52 49.0115L25.8093 48.5107C26.8117 47.0897 27.8597 45.6733 28.925 44.3008L29.6119 44.8334C28.555 46.1957 27.5146 47.6012 26.52 49.0115ZM209.578 45.5383C208.53 44.1665 207.439 42.8027 206.334 41.485L207.001 40.9268C208.114 42.2547 209.213 43.6286 210.269 45.0108L209.578 45.5383ZM32.8906 40.802L32.2287 40.2384C33.3536 38.9177 34.526 37.6032 35.7133 36.3314L36.3488 36.9242C35.1707 38.1865 34.0072 39.4913 32.8906 40.802ZM202.909 37.5826C201.741 36.3118 200.529 35.0523 199.308 33.8394L199.921 33.2228C201.151 34.4452 202.372 35.7141 203.549 36.9944L202.909 37.5826ZM39.9791 33.2092L39.3711 32.5879C40.6144 31.372 41.9011 30.1699 43.1949 29.0152L43.774 29.6637C42.4899 30.8095 41.2131 32.0024 39.9791 33.2092ZM195.541 30.2629C194.261 29.1024 192.939 27.9578 191.613 26.861L192.167 26.1914C193.503 27.2965 194.835 28.4497 196.125 29.6191L195.541 30.2629ZM47.7256 26.2945L47.1767 25.6206C48.5215 24.5259 49.9112 23.4462 51.3077 22.4116L51.8256 23.1097C50.4396 24.1367 49.0602 25.2081 47.7256 26.2945ZM56.0651 20.1161L55.5798 19.3951C57.0191 18.4271 58.5008 17.4792 59.984 16.5772L60.4357 17.3199C58.964 18.2149 57.4935 19.1557 56.0651 20.1161ZM64.9286 14.7269L64.5113 13.9643C66.034 13.1314 67.5953 12.3234 69.1517 11.5623L69.5338 12.3431C67.9893 13.0983 66.4399 13.9002 64.9286 14.7269ZM169.865 12.7132C168.317 11.9427 166.733 11.1984 165.154 10.5009L165.506 9.70602C167.096 10.4088 168.694 11.1589 170.253 11.9353L169.865 12.7132ZM74.2418 10.1735L73.8962 9.37605C75.4875 8.68664 77.1153 8.02545 78.7341 7.41073L79.0428 8.22342C77.4362 8.83328 75.821 9.48938 74.2418 10.1735ZM160.345 8.50713C158.735 7.88309 157.087 7.28766 155.447 6.73767L155.724 5.91352C157.376 6.46797 159.037 7.06783 160.659 7.69698L160.345 8.50713ZM83.9405 6.49218L83.6697 5.66633C85.322 5.12481 87.008 4.61492 88.6803 4.15128L88.9128 4.98859C87.2531 5.44883 85.5802 5.95469 83.9405 6.49218ZM150.485 5.19993C148.827 4.72738 147.135 4.2873 145.458 3.89199L145.657 3.04619C147.348 3.44447 149.052 3.88795 150.724 4.3639L150.485 5.19993ZM93.9493 3.71566L93.7557 2.86838C95.4497 2.48155 97.1754 2.1291 98.8844 1.821L99.039 2.67613C97.3426 2.98211 95.6304 3.3318 93.9493 3.71566ZM140.375 2.81745C138.682 2.4998 136.958 2.21716 135.249 1.97739L135.37 1.11674C137.091 1.35842 138.83 1.64318 140.536 1.96317L140.375 2.81745ZM104.171 1.87172L104.056 1.01023C105.777 0.780635 107.528 0.58754 109.259 0.436888L109.334 1.30262C107.617 1.45242 105.88 1.64382 104.171 1.87172ZM130.09 1.37307C128.377 1.21181 126.634 1.08747 124.908 1.00407L124.95 0.135806C126.689 0.220047 128.445 0.345242 130.171 0.507797L130.09 1.37307ZM114.519 0.969272L114.483 0.101006C116.081 0.0343784 117.709 0.000425876 119.324 0L119.717 0.00063906L119.715 0.869774L119.324 0.869135C117.722 0.869535 116.105 0.903274 114.519 0.969263V0.969272Z" fill="#3F3D56"/>
<path d="M259.216 40.9392V322.626C259.212 325.981 257.877 329.198 255.502 331.57C253.128 333.942 249.908 335.275 246.551 335.276H132.147C130.484 335.279 128.836 334.954 127.299 334.319C125.762 333.685 124.365 332.753 123.188 331.578C122.012 330.403 121.079 329.007 120.443 327.471C119.807 325.935 119.481 324.288 119.482 322.626V40.9392C119.482 39.2768 119.81 37.6306 120.446 36.0947C121.083 34.5588 122.015 33.1632 123.191 31.9877C124.367 30.8122 125.764 29.8797 127.3 29.2436C128.837 28.6075 130.484 28.2801 132.147 28.2803H149.267V30.4748C149.267 33.2391 150.365 35.8904 152.32 37.8455C154.275 39.8005 156.927 40.8993 159.693 40.9001H217.88C220.106 40.9049 222.274 40.1916 224.062 38.8663C224.423 38.6035 224.766 38.316 225.088 38.0059C226.106 37.0338 226.917 35.865 227.47 34.5704C228.023 33.2759 228.307 31.8825 228.305 30.4748V28.2803H246.551C248.215 28.2798 249.862 28.6069 251.398 29.2428C252.935 29.8788 254.331 30.8113 255.508 31.9869C256.684 33.1625 257.617 34.5582 258.253 36.0943C258.889 37.6303 259.216 39.2767 259.216 40.9392Z" fill="#363537"/>
<path d="M242.49 129.825H136.209V210.655H242.49V129.825Z" fill="#A674FF"/>
<path d="M70.2109 107.249C79.6736 107.452 87.2011 114.306 87.2011 114.306C87.2011 114.306 79.3865 120.832 69.9238 120.629C60.4611 120.426 52.9336 113.571 52.9336 113.571C52.9336 113.571 60.7482 107.046 70.2109 107.249Z" fill="#FF19A3"/>
<path d="M33.6636 85.3726C42.2127 89.4324 52.0158 86.6794 52.0158 86.6794C52.0158 86.6794 47.9581 77.3441 39.4089 73.2843C30.8598 69.2245 21.0566 71.9775 21.0566 71.9775C21.0566 71.9775 25.1144 81.3128 33.6636 85.3726Z" fill="#FF19A3"/>
<path d="M34.5315 81.3379C43.9571 80.4769 52.2073 86.4427 52.2073 86.4427C52.2073 86.4427 45.1756 93.8045 35.75 94.6655C26.3244 95.5266 18.0742 89.5608 18.0742 89.5608C18.0742 89.5608 25.1059 82.1989 34.5315 81.3379Z" fill="#363537"/>
<path d="M68.0897 81.5151C67.1863 90.9328 73.1177 99.206 73.1177 99.206C73.1177 99.206 80.514 92.2102 81.4174 82.7925C82.3208 73.3748 76.3894 65.1016 76.3894 65.1016C76.3894 65.1016 68.9932 72.0974 68.0897 81.5151Z" fill="#363537"/>
<path d="M112.479 139.274C107.535 147.342 109.236 157.377 109.236 157.377C109.236 157.377 118.952 154.332 123.896 146.264C128.84 138.197 127.139 128.161 127.139 128.161C127.139 128.161 117.422 131.206 112.479 139.274Z" fill="#3F3D56"/>
<path d="M98.1372 226.991L98.8577 226.504C96.3182 222.82 94.9316 218.465 94.8741 213.992C94.8942 207.448 98.1097 201.396 101.219 195.543C101.797 194.456 102.372 193.373 102.925 192.291C105.248 187.878 107.099 183.232 108.448 178.432C113.272 160.514 108.523 139.375 95.7453 121.885C85.6088 108.01 70.4985 95.8764 49.5513 84.792L49.1445 85.5601C69.9725 96.5813 84.986 108.631 95.043 122.397C107.667 139.677 112.364 160.54 107.609 178.206C106.275 182.948 104.446 187.536 102.151 191.895C101.6 192.974 101.026 194.052 100.451 195.135C97.2922 201.081 94.0254 207.23 94.0046 213.989C94.062 218.637 95.5005 223.162 98.1372 226.991Z" fill="#363537"/>
<path d="M8.26027 85.9345C12.8223 85.9345 16.5205 82.2378 16.5205 77.6777C16.5205 73.1176 12.8223 69.4209 8.26027 69.4209C3.69825 69.4209 0 73.1176 0 77.6777C0 82.2378 3.69825 85.9345 8.26027 85.9345Z" fill="#FFA5DB"/>
<path d="M124.54 211.704L72.6875 207.385V131.367L124.54 128.775V211.704Z" fill="#8D4CFF"/>
<path d="M254.16 211.704L306.013 207.385V131.367L254.16 128.775V211.704Z" fill="#DAC5FF"/>
<path d="M207.373 160.164C205.83 158.832 203.929 157.984 201.907 157.727C199.884 157.47 197.831 157.815 196.004 158.719C194.418 159.486 192.711 159.975 190.958 160.162C190.914 156.368 191.611 152.602 193.009 149.074L193.239 148.482H190.191L190.104 148.802C189.764 150.05 189.497 151.316 189.302 152.594C189.138 152.04 188.924 151.501 188.665 150.985C186.527 146.748 181.588 145.016 181.379 144.944L180.958 144.8L180.823 145.224C180.757 145.435 179.214 150.435 181.352 154.671C182.882 157.705 185.848 159.454 187.487 160.229C185.413 160.096 183.386 159.554 181.523 158.635C180.361 158.036 179.054 157.777 177.751 157.887C176.449 157.997 175.204 158.471 174.159 159.256C168.469 163.578 165.205 169.914 165.205 176.638C165.205 185.472 170.928 193.562 179.786 197.249C180.585 197.58 181.442 197.75 182.307 197.749C183.508 197.749 184.687 197.426 185.72 196.813C187.093 196.015 188.653 195.593 190.241 195.59C191.829 195.586 193.39 196.002 194.767 196.795C195.657 197.32 196.656 197.63 197.687 197.703C198.717 197.775 199.751 197.608 200.705 197.213C209.511 193.512 215.201 185.436 215.201 176.638C215.201 170.341 212.421 164.49 207.373 160.164ZM190.856 149.352H191.975C190.717 152.721 190.075 156.289 190.082 159.886H189.882C189.612 156.345 189.942 152.783 190.856 149.352ZM182.128 154.28C180.505 151.064 181.217 147.23 181.532 145.937C182.759 146.452 186.262 148.154 187.888 151.376C189.511 154.592 188.799 158.425 188.485 159.719C187.257 159.202 183.751 157.496 182.128 154.28ZM200.368 196.412C199.539 196.755 198.64 196.9 197.745 196.837C196.849 196.773 195.981 196.502 195.208 196.045C193.697 195.174 191.983 194.717 190.239 194.721C188.495 194.724 186.783 195.188 185.276 196.066C184.505 196.525 183.638 196.798 182.743 196.864C181.848 196.93 180.95 196.787 180.12 196.446C171.588 192.896 166.075 185.121 166.075 176.638C166.075 170.188 169.213 164.104 174.685 159.948C175.735 159.155 177.015 158.728 178.331 158.731C179.302 158.731 180.26 158.962 181.124 159.407C183.506 160.543 186.109 161.14 188.747 161.156C191.386 161.171 193.996 160.605 196.391 159.498C198.065 158.67 199.946 158.354 201.799 158.59C203.652 158.826 205.394 159.603 206.807 160.824C211.659 164.983 214.332 170.599 214.332 176.638C214.332 185.086 208.851 192.847 200.368 196.412Z" fill="white"/>
<path d="M98.4721 151.951V150.931H98.8778V147.752C98.8793 147.517 98.8161 147.285 98.6949 147.083C98.5737 146.881 98.3993 146.716 98.1906 146.606C96.3962 145.67 94.4679 145.671 92.4591 146.611C92.2373 146.716 92.05 146.882 91.919 147.089C91.788 147.297 91.7187 147.537 91.7191 147.783V150.931H92.1247V151.854C90.6316 152.273 89.3169 153.169 88.3824 154.406C87.4479 155.643 86.9451 157.152 86.9512 158.702V165.58L87.7239 165.837L86.9512 166.352V168.419L87.7239 168.676L86.9512 169.191V171.258L87.7239 171.515L86.9512 172.03V187.772C86.9526 188.999 87.4412 190.177 88.3097 191.045C89.1783 191.913 90.3559 192.401 91.5843 192.403H98.4144C99.64 192.402 100.815 191.914 101.682 191.048C102.548 190.182 103.036 189.007 103.037 187.782V172.03L102.264 171.515L103.037 171.258V169.191L102.264 168.676L103.037 168.419V166.352L102.264 165.837L103.037 165.58V158.347C103.032 156.94 102.59 155.569 101.772 154.423C100.955 153.277 99.8017 152.414 98.4721 151.951ZM92.8272 147.398C94.6029 146.569 96.226 146.562 97.7882 147.377C97.8554 147.414 97.9113 147.468 97.9501 147.534C97.9888 147.6 98.009 147.676 98.0083 147.752V149.453H92.5886V147.783C92.5878 147.703 92.6099 147.624 92.6521 147.556C92.6943 147.488 92.755 147.433 92.8272 147.398ZM102.168 164.953L100.303 165.575L102.168 166.817V167.792L100.303 168.414L102.168 169.656V170.632L100.303 171.253L102.168 172.496V187.782C102.166 188.777 101.771 189.73 101.067 190.434C100.363 191.137 99.4094 191.533 98.4144 191.534H91.5843C90.5864 191.533 89.6298 191.136 88.9242 190.431C88.2187 189.725 87.8218 188.769 87.8207 187.772V172.496L89.6854 171.253L87.8207 170.632V169.656L89.6854 168.414L87.8207 167.792V166.817L89.6854 165.575L87.8207 164.953V158.702C87.8152 157.289 88.2912 155.916 89.1704 154.81C90.0495 153.703 91.2794 152.929 92.6575 152.615L92.9942 152.537V150.931H97.6026V152.595L97.9162 152.686C99.1401 153.046 100.215 153.792 100.981 154.812C101.747 155.832 102.163 157.072 102.168 158.347V164.953Z" fill="white"/>
<path d="M302.832 163.852L300.643 163.415L301.158 162.385L300.154 162.184L300.328 161.14L299.231 160.957V159.967L298.342 159.713L299.186 158.659H297.721L298.027 157.895L296.944 157.714L297.312 156.426H296.139V155.225H295.705C294.335 155.225 293.571 156.851 293.32 157.502C285.759 158.82 263.804 174.021 261.299 175.769C260.258 175.431 258.713 176.222 258.391 176.398L257.881 176.676L258.617 177.412L258.398 178.07L259.749 178.576L259.453 179.315L260.303 180.024L259.539 180.598L260.689 181.288L260.487 182.296L261.772 182.48V183.489L262.518 183.638L262.146 184.941H262.974V185.972H263.783L264.149 187.069L264.525 186.994C265.4 186.819 266.149 185.609 266.442 185.073C273.724 183.774 296.206 167.963 298.395 166.414C300.95 166.72 301.888 166.038 301.989 165.958L302.405 165.625L301.412 164.799L302.832 163.852ZM298.339 165.531L298.17 165.508L298.03 165.608C297.782 165.784 273.125 183.245 266.096 184.248L265.871 184.281L265.769 184.484C265.499 185.033 265.135 185.531 264.693 185.954L264.409 185.103H263.844V184.072H263.298L263.613 182.971L262.641 182.777V181.726L261.521 181.566L261.662 180.857L261.095 180.517L261.704 180.06L260.494 179.052L260.885 178.074L259.488 177.55L259.612 177.178L259.342 176.907C259.995 176.636 260.785 176.434 261.124 176.637L261.367 176.783L261.597 176.62C261.844 176.447 286.333 159.326 293.702 158.322L293.977 158.284L294.059 158.019C294.186 157.608 294.636 156.57 295.27 156.215V157.296H296.159L295.84 158.412L296.818 158.575L296.437 159.528H297.377L296.847 160.19L298.362 160.623V161.694L299.327 161.855L299.158 162.871L299.872 163.014L299.356 164.044L300.603 164.293L299.961 164.721L300.884 165.49C300.045 165.66 299.183 165.674 298.339 165.531Z" fill="white"/>
<path d="M189.35 247.594C196.313 247.594 201.958 241.951 201.958 234.991C201.958 228.031 196.313 222.389 189.35 222.389C182.387 222.389 176.742 228.031 176.742 234.991C176.742 241.951 182.387 247.594 189.35 247.594Z" fill="#FF19A3"/>
<path d="M197.288 233.746H190.595V227.056H188.105V233.746H181.412V236.235H188.105V242.925H190.595V236.235H197.288V233.746Z" fill="white"/>
<path d="M229.115 235.425L222.593 232.383V234.121H207.377V236.728H222.593V238.467L229.115 235.425Z" fill="white"/>
<path d="M149.586 235.425L156.107 232.383V234.121H171.324V236.728H156.107V238.467L149.586 235.425Z" fill="white"/>
<path d="M348.686 335.376H30.0137V336.245H348.686V335.376Z" fill="#3F3D56"/>
<path d="M231.085 69.4199H147.613V70.289H231.085V69.4199Z" fill="white"/>
<path d="M231.289 306.694H147.816V307.564H231.289V306.694Z" fill="white"/>
<path d="M365.41 220.867L363.236 229.124C363.236 229.124 355.41 246.507 363.236 247.376C371.061 248.245 371.496 224.778 371.496 224.778L365.41 220.867Z" fill="#A0616A"/>
<path d="M378.885 161.331L363.234 223.04C363.234 223.04 369.321 224.778 372.364 226.951L378.885 161.331Z" fill="#D0CDE1"/>
<path d="M428.013 208.265L432.361 275.623C432.361 275.623 442.795 302.132 442.36 327.336C442.36 327.336 438.447 337.331 441.491 339.07C444.534 340.808 446.273 342.112 444.534 343.415C442.795 344.719 441.491 347.761 442.795 348.63C444.099 349.499 444.534 350.803 444.099 350.803H431.057C431.057 350.803 433.665 344.285 429.752 342.546C425.84 340.808 428.013 336.462 428.013 336.462L398.885 251.287L375.843 329.509C375.843 329.509 379.756 332.117 376.713 333.42C373.669 334.724 372.365 332.117 373.669 334.724C374.974 337.331 373.235 338.635 373.235 339.07C373.235 339.504 360.192 337.766 360.192 337.766C360.192 337.766 366.713 332.117 363.67 330.813C360.627 329.509 359.323 328.206 360.192 327.336C361.062 326.467 364.54 318.211 364.54 318.211C364.54 318.211 366.279 286.922 366.713 285.618C367.148 284.314 366.713 278.23 366.713 275.188C366.713 272.146 366.279 259.979 367.583 256.937C368.887 253.895 370.191 216.522 377.147 212.176C384.103 207.83 428.013 208.265 428.013 208.265Z" fill="#5A5A5A"/>
<path d="M372.799 336.897C372.799 336.897 381.494 354.714 375.408 356.887C369.321 359.06 361.496 357.322 359.757 359.929C358.018 362.537 338.889 365.579 338.454 359.06C338.019 352.542 359.322 340.374 359.322 340.374L362.097 335.907L372.799 336.897Z" fill="#363537"/>
<path d="M443.229 349.934C443.229 349.934 451.924 367.752 445.837 369.924C439.751 372.097 431.925 370.359 430.186 372.966C428.447 375.574 409.318 378.616 408.884 372.097C408.449 365.579 429.752 353.411 429.752 353.411L432.527 348.944L443.229 349.934Z" fill="#363537"/>
<path d="M403.015 126.348C410.938 126.348 417.362 119.928 417.362 112.008C417.362 104.088 410.938 97.667 403.015 97.667C395.091 97.667 388.668 104.088 388.668 112.008C388.668 119.928 395.091 126.348 403.015 126.348Z" fill="#A0616A"/>
<path d="M412.797 119.613L411.058 132.216L398.015 142.211L394.537 137.431V120.917L412.797 119.613Z" fill="#A0616A"/>
<path d="M392.363 135.692C392.363 135.692 405.841 136.996 412.797 132.216L426.709 214.349C426.709 214.349 377.582 218.26 375.408 215.653V190.013L384.103 148.295L392.363 135.692Z" fill="#363537"/>
<path d="M411.599 128.288L416.274 132.215C416.274 132.215 435.403 135.257 434.099 140.472L428.882 202.18L430.621 223.039C430.621 223.039 415.839 219.128 404.536 223.039C393.232 226.951 402.213 138.993 402.213 138.993C402.213 138.993 412.576 129.576 411.599 128.288Z" fill="#D0CDE1"/>
<path d="M394.538 133.045C394.538 133.045 380.626 143.079 378.887 149.598C377.148 156.116 371.496 224.778 371.496 224.778C371.496 224.778 374.105 223.474 375.409 225.647C376.713 227.82 396.712 136.482 394.538 133.045Z" fill="#D0CDE1"/>
<path d="M432.795 223.909L429.678 234.074C429.678 234.074 428.882 253.025 418.448 250.418C408.014 247.81 421.491 225.647 421.491 225.647L424.534 220.867L432.795 223.909Z" fill="#A0616A"/>
<path d="M388.675 111.383C388.675 111.383 387.121 109.054 387.719 106.546C388.076 105.123 388.217 103.653 388.137 102.187C388.137 102.187 389.391 98.1272 390.646 95.8582C391.9 93.5892 391.303 92.6338 395.246 91.9173C399.188 91.2008 397.575 86.0657 407.969 91.6188C408.32 92.1082 408.808 92.4828 409.371 92.6953C409.935 92.9079 410.548 92.9488 411.135 92.813C413.286 92.395 414.062 95.3805 414.062 95.3805C414.062 95.3805 415.496 94.5446 416.034 95.7388C416.571 96.933 420.404 95.022 420.404 103.083C420.404 111.144 416.042 118.344 416.042 118.344C416.042 118.344 416.362 104.785 409.254 103.412C402.145 102.038 394.499 98.0376 392.647 103.173C391.647 106.055 390.314 108.81 388.675 111.383Z" fill="#2F2E41"/>
<path d="M416.199 114.607C416.973 114.607 417.601 113.77 417.601 112.738C417.601 111.706 416.973 110.869 416.199 110.869C415.425 110.869 414.797 111.706 414.797 112.738C414.797 113.77 415.425 114.607 416.199 114.607Z" fill="#A0616A"/>
<path d="M430.622 137.431C430.622 137.431 437.578 135.692 439.752 147.426C441.925 159.159 444.534 192.621 444.534 192.621L434.1 227.821C434.1 227.821 423.666 222.171 421.492 223.04L429.703 192.481L422.796 161.332C422.796 161.332 428.883 137.431 430.622 137.431Z" fill="#D0CDE1"/>
<path opacity="0.15" d="M420.508 161.926L429.638 192.345L420.508 223.2L425.725 192.345L420.508 161.926Z" fill="black"/>
</g>
<defs>
<clipPath id="clip0">
<path d="M0 0H448V376H0V0Z" fill="white"/>
</clipPath>
</defs>
</svg>
