<svg width="386" height="364" viewBox="0 0 386 364" fill="none" xmlns="http://www.w3.org/2000/svg">
<g clip-path="url(#clip0)">
<path d="M189.38 364C252.883 364 304.363 356.013 304.363 346.16C304.363 336.307 252.883 328.32 189.38 328.32C125.877 328.32 74.3981 336.307 74.3981 346.16C74.3981 356.013 125.877 364 189.38 364Z" fill="#F9F9F9"/>
<path d="M186.336 75.5806C186.336 75.5806 189.143 88.526 179.6 93.5916C179.6 93.5916 181.846 122.297 196.441 122.859C211.036 123.422 211.036 107.663 211.036 107.663L208.79 99.22C208.79 99.22 198.125 93.0287 204.861 81.209L186.336 75.5806Z" fill="#755950"/>
<path d="M198.405 82.6163C212.976 82.6163 224.788 70.7726 224.788 56.1626C224.788 41.5527 212.976 29.709 198.405 29.709C183.834 29.709 172.022 41.5527 172.022 56.1626C172.022 70.7726 183.834 82.6163 198.405 82.6163Z" fill="#2F2E41"/>
<path d="M170.619 135.805V167.324L217.21 165.636L213.842 134.679L170.619 135.805Z" fill="#7E6861"/>
<path d="M198.686 84.5858C207.986 84.5858 215.526 77.026 215.526 67.7005C215.526 58.375 207.986 50.8152 198.686 50.8152C189.385 50.8152 181.846 58.375 181.846 67.7005C181.846 77.026 189.385 84.5858 198.686 84.5858Z" fill="#7E6861"/>
<path d="M177.916 93.5918C177.916 93.5918 168.373 91.9032 165.005 93.5918C161.637 95.2803 157.708 94.7175 153.778 111.04L146.481 144.811C146.481 144.811 145.358 154.942 153.778 153.816C162.199 152.69 161.637 138.056 161.637 138.056L167.251 125.111L177.355 113.854L177.916 93.5918Z" fill="#7E6861"/>
<path d="M209.913 100.345C209.913 100.345 223.385 102.034 224.508 109.351C225.63 116.668 219.456 146.499 219.456 146.499L209.913 136.93L214.965 118.356L209.913 100.345Z" fill="#7E6861"/>
<path d="M175.39 93.3101L175.671 103.723L167.812 120.608L169.496 141.433L214.539 141.569L214.403 131.865C214.403 131.865 220.578 123.985 217.21 117.231C213.842 110.477 211.316 100.064 211.316 100.064L206.825 97.25C206.825 97.25 214.403 114.98 198.686 112.165C182.968 109.351 182.126 91.6216 182.126 91.6216L175.39 93.3101Z" fill="#D0CDE1"/>
<path d="M162.199 206.723L154.34 251.188L145.358 315.915L141.429 323.232L144.797 330.549L154.34 326.046L158.269 308.598C158.269 308.598 171.741 292.275 169.496 271.45L193.634 213.477L162.199 206.723Z" fill="#7E6861"/>
<path d="M200.931 211.226L206.545 266.385C206.545 266.385 205.422 281.581 208.79 295.09C212.158 308.598 214.403 332.237 214.403 332.237H225.63L223.385 263.008L230.682 206.723L200.931 211.226Z" fill="#755950"/>
<path d="M193.072 160.57C193.072 160.57 169.496 158.881 169.496 161.696V167.324C169.496 167.324 165.005 174.641 165.567 181.395C166.128 188.149 144.236 203.346 158.269 210.1C172.303 216.854 190.827 219.106 193.634 216.854C196.44 214.603 198.124 205.598 198.124 205.598C198.124 205.598 198.124 215.729 203.177 216.292C208.229 216.854 238.541 210.663 238.541 205.598C238.541 200.532 216.077 155.223 216.077 155.223C216.077 155.223 199.808 161.133 193.072 160.57Z" fill="#9ABA19"/>
<path d="M144.236 323.795C144.236 323.795 141.99 319.855 139.745 322.669C137.499 325.483 129.079 332.237 129.079 332.237C129.079 332.237 108.31 337.866 122.343 346.308C122.343 346.308 134.693 346.308 139.745 342.368C144.797 338.429 149.849 340.117 149.849 340.117C149.849 340.117 157.708 339.554 158.269 336.177C158.83 332.8 155.328 321.656 155.328 321.656C155.328 321.656 151.533 326.609 144.236 323.795Z" fill="#363537"/>
<path d="M218.894 327.172C218.894 327.172 212.158 325.483 212.158 327.172C212.158 328.86 202.615 338.992 210.474 343.494C218.333 347.997 219.456 346.871 220.017 351.374C220.578 355.877 235.173 359.254 237.418 356.44C239.664 353.626 241.348 348.56 238.541 346.309C235.734 344.057 226.753 329.986 226.753 327.172C226.753 324.358 218.894 327.172 218.894 327.172Z" fill="#363537"/>
<path d="M205.288 108.691C206.376 108.691 207.258 108.249 207.258 107.703C207.258 107.157 206.376 106.715 205.288 106.715C204.199 106.715 203.317 107.157 203.317 107.703C203.317 108.249 204.199 108.691 205.288 108.691Z" fill="#D89F0E"/>
<path d="M205.512 111.88C207.738 111.88 209.542 110.955 209.542 109.814C209.542 108.673 207.738 107.748 205.512 107.748C203.285 107.748 201.481 108.673 201.481 109.814C201.481 110.955 203.285 111.88 205.512 111.88Z" fill="#4986B2"/>
<path d="M210.259 111.071H200.585V118.167H210.259V111.071Z" fill="#00426C"/>
<path d="M216.843 122.164H193.911V156.922H216.843V122.164Z" fill="#4986B3"/>
<path d="M217.873 121.759C217.873 125.182 212.249 124.005 205.422 124.005C198.595 124.005 192.792 125.092 192.792 121.669C192.792 118.247 198.595 114.664 205.422 114.664C212.249 114.664 217.873 118.337 217.873 121.759Z" fill="#00426C"/>
<path d="M217.873 125.442H193.061V128.136H217.873V125.442Z" fill="#F9F9F9"/>
<path d="M218.052 151.488H193.24V154.182H218.052V151.488Z" fill="#F9F9F9"/>
<path d="M217.873 139.812H193.061V145.201H217.873V139.812Z" fill="#F9F9F9"/>
<path d="M217.694 155.71C217.694 156.851 218.055 160.111 205.691 160.111C191.717 160.111 192.881 156.671 192.881 155.53C192.881 154.389 199.062 155.979 205.691 155.979C212.32 155.979 217.694 154.569 217.694 155.71Z" fill="#00426C"/>
<path d="M211.065 109.814H199.6V113.676H211.065V109.814Z" fill="#F9F9F9"/>
<path opacity="0.8" d="M196.509 130.427H194.986V138.869H196.509V130.427Z" fill="#00426C"/>
<path opacity="0.8" d="M196.509 146.503H194.986V149.647H196.509V146.503Z" fill="#00426C"/>
<path d="M221.701 139.745C221.701 139.745 211.036 125.674 211.597 135.805C212.158 145.936 218.333 151.002 219.456 151.002C220.578 151.002 225.069 149.876 221.701 139.745Z" fill="#7E6861"/>
<path opacity="0.1" d="M170.619 150.584C171.461 150.72 184.933 145.655 184.933 145.655L193.353 144.529L170.619 154.062L170.619 150.584Z" fill="black"/>
<path d="M153.217 140.871C153.217 140.871 157.708 138.056 166.689 139.182L184.091 134.679C184.091 134.679 200.37 125.111 206.545 136.931C212.719 148.75 183.529 144.81 183.529 144.81C183.529 144.81 163.882 160.57 152.094 152.127L153.217 140.871Z" fill="#7E6861"/>
<path d="M174.267 44.9054C178.608 44.9054 182.126 41.3775 182.126 37.0256C182.126 32.6737 178.608 29.1458 174.267 29.1458C169.927 29.1458 166.409 32.6737 166.409 37.0256C166.409 41.3775 169.927 44.9054 174.267 44.9054Z" fill="#2F2E41"/>
<path d="M222.543 42.6542C226.883 42.6542 230.402 39.1262 230.402 34.7743C230.402 30.4224 226.883 26.8945 222.543 26.8945C218.203 26.8945 214.684 30.4224 214.684 34.7743C214.684 39.1262 218.203 42.6542 222.543 42.6542Z" fill="#2F2E41"/>
<path d="M214.123 31.3972C214.123 29.4537 214.84 27.5789 216.135 26.133C217.43 24.6871 219.212 23.7721 221.14 23.5639C220.042 23.4437 218.932 23.5567 217.881 23.8956C216.83 24.2344 215.862 24.7915 215.04 25.5306C214.218 26.2696 213.56 27.174 213.11 28.1848C212.66 29.1956 212.427 30.2902 212.427 31.3972C212.427 32.5041 212.66 33.5987 213.11 34.6095C213.56 35.6203 214.218 36.5247 215.04 37.2638C215.862 38.0028 216.83 38.5599 217.881 38.8987C218.932 39.2376 220.042 39.3506 221.14 39.2304C219.212 39.0222 217.43 38.1072 216.135 36.6613C214.84 35.2155 214.123 33.3406 214.123 31.3972Z" fill="#2F2E41"/>
<path d="M165.487 43.3994C164.13 42.011 163.334 40.169 163.249 38.2274C163.165 36.2857 163.8 34.3814 165.031 32.8804C164.81 33.0548 164.598 33.241 164.397 33.438C162.909 34.9008 162.062 36.8962 162.041 38.9855C162.02 41.0747 162.827 43.0868 164.286 44.5792C165.744 46.0716 167.734 46.9222 169.818 46.9438C171.901 46.9655 173.908 46.1565 175.397 44.6948C175.598 44.497 175.788 44.2886 175.966 44.0706C174.444 45.2743 172.532 45.8715 170.598 45.7476C168.664 45.6237 166.843 44.7874 165.487 43.3994Z" fill="#2F2E41"/>
<path d="M198.405 43.78C189.104 43.78 181.565 48.1899 181.565 53.6298C181.565 56.0638 183.08 58.2884 185.582 60.007L188.824 57.6517L187.942 61.3415C188.308 61.5115 188.682 61.676 189.071 61.8281L193.914 56.1626V63.1226C195.399 63.3612 196.901 63.4806 198.405 63.4796C207.706 63.4796 215.245 59.0697 215.245 53.6298C215.245 48.1899 207.706 43.78 198.405 43.78Z" fill="#2F2E41"/>
<path d="M214.684 34.7742C214.684 34.7742 213.464 40.4026 221.091 42.654L214.684 34.7742Z" fill="#D89F0E"/>
<path d="M181.565 35.7988C181.565 35.7988 184.372 42.0914 175.951 44.9056L181.565 35.7988Z" fill="#D89F0E"/>
<path d="M295.988 312.174C297.467 310.524 298.522 308.538 299.063 306.387C299.604 304.237 299.615 301.986 299.094 299.83C298.573 297.675 297.536 295.678 296.073 294.015C294.61 292.351 292.765 291.07 290.697 290.281C292.538 289.213 293.976 287.566 294.789 285.595C295.602 283.624 295.743 281.439 295.192 279.379C294.64 277.319 293.427 275.499 291.739 274.201C290.051 272.903 287.983 272.199 285.856 272.199C283.728 272.199 281.661 272.903 279.973 274.201C278.285 275.499 277.071 277.319 276.519 279.379C275.968 281.439 276.11 283.624 276.922 285.595C277.735 287.566 279.174 289.213 281.015 290.281C278.947 291.07 277.102 292.351 275.639 294.015C274.175 295.678 273.139 297.675 272.618 299.83C272.096 301.986 272.107 304.237 272.648 306.387C273.189 308.538 274.245 310.524 275.724 312.174C272.271 314.374 269.623 317.637 268.179 321.475C266.734 325.312 266.571 329.516 267.713 333.455C268.856 337.393 271.242 340.853 274.513 343.316C277.785 345.778 281.765 347.109 285.856 347.109C289.946 347.109 293.927 345.778 297.198 343.316C300.47 340.853 302.856 337.393 303.998 333.455C305.141 329.516 304.977 325.312 303.533 321.475C302.088 317.637 299.441 314.374 295.988 312.174Z" fill="#4986B2"/>
<path d="M121.627 201.067C129.396 201.067 135.694 194.752 135.694 186.963C135.694 179.173 129.396 172.858 121.627 172.858C113.858 172.858 107.56 179.173 107.56 186.963C107.56 194.752 113.858 201.067 121.627 201.067Z" fill="#00426C"/>
<path d="M118.598 198.495C119.97 197.381 119.102 194.024 116.657 190.997C114.213 187.97 111.12 186.418 109.747 187.532C108.375 188.646 109.244 192.003 111.688 195.03C114.132 198.058 117.226 199.609 118.598 198.495Z" fill="white"/>
<path d="M29.6178 159.448C37.3866 159.448 43.6844 153.134 43.6844 145.344C43.6844 137.555 37.3866 131.24 29.6178 131.24C21.8491 131.24 15.5513 137.555 15.5513 145.344C15.5513 153.134 21.8491 159.448 29.6178 159.448Z" fill="#4986B2"/>
<path d="M23.4443 143.675C24.4555 139.915 23.8933 136.493 22.1886 136.032C20.4839 135.571 18.2821 138.246 17.2708 142.006C16.2596 145.767 16.8218 149.189 18.5265 149.65C20.2313 150.111 22.433 147.436 23.4443 143.675Z" fill="white"/>
<path d="M8.76831 71.2515C13.6098 71.2515 17.5345 67.3162 17.5345 62.4618C17.5345 57.6074 13.6098 53.6721 8.76831 53.6721C3.92685 53.6721 0.0020752 57.6074 0.0020752 62.4618C0.0020752 67.3162 3.92685 71.2515 8.76831 71.2515Z" fill="#00426C"/>
<path d="M4.92126 61.4216C5.55147 59.0781 5.20112 56.9454 4.13873 56.6582C3.07634 56.371 1.70422 58.038 1.07401 60.3815C0.443805 62.725 0.794161 64.8576 1.85655 65.1448C2.91894 65.432 4.29106 63.7651 4.92126 61.4216Z" fill="white"/>
<path d="M99.5958 288.696C104.437 288.696 108.362 284.761 108.362 279.906C108.362 275.052 104.437 271.116 99.5958 271.116C94.7543 271.116 90.8295 275.052 90.8295 279.906C90.8295 284.761 94.7543 288.696 99.5958 288.696Z" fill="#4986B2"/>
<path d="M95.7498 278.866C96.38 276.523 96.0296 274.39 94.9672 274.103C93.9048 273.816 92.5327 275.483 91.9025 277.826C91.2723 280.17 91.6226 282.302 92.685 282.59C93.7474 282.877 95.1195 281.21 95.7498 278.866Z" fill="white"/>
<path d="M371.934 190.863C379.702 190.863 386 184.548 386 176.758C386 168.969 379.702 162.654 371.934 162.654C364.165 162.654 357.867 168.969 357.867 176.758C357.867 184.548 364.165 190.863 371.934 190.863Z" fill="#4986B2"/>
<path d="M362.342 183.811C364.108 183.811 365.539 180.653 365.539 176.759C365.539 172.864 364.108 169.707 362.342 169.707C360.577 169.707 359.146 172.864 359.146 176.759C359.146 180.653 360.577 183.811 362.342 183.811Z" fill="white"/>
<path d="M326.537 100.468C334.306 100.468 340.603 94.153 340.603 86.3635C340.603 78.5739 334.306 72.2593 326.537 72.2593C318.768 72.2593 312.47 78.5739 312.47 86.3635C312.47 94.153 318.768 100.468 326.537 100.468Z" fill="#00426C"/>
<path d="M322.786 81.1714C325.931 78.8866 327.642 75.8721 326.606 74.4384C325.57 73.0047 322.181 73.6946 319.035 75.9795C315.889 78.2643 314.179 81.2787 315.214 82.7124C316.25 84.1462 319.64 83.4562 322.786 81.1714Z" fill="white"/>
<path d="M362.343 17.5801C367.184 17.5801 371.109 13.6448 371.109 8.79041C371.109 3.93601 367.184 0.000732422 362.343 0.000732422C357.501 0.000732422 353.576 3.93601 353.576 8.79041C353.576 13.6448 357.501 17.5801 362.343 17.5801Z" fill="#4986B2"/>
<path d="M360.005 5.55466C361.965 4.13078 363.031 2.25217 362.386 1.35868C361.74 0.465194 359.628 0.895167 357.667 2.31905C355.707 3.74293 354.641 5.62153 355.287 6.51502C355.932 7.40851 358.045 6.97854 360.005 5.55466Z" fill="white"/>
<path d="M296.485 243.888C301.327 243.888 305.252 239.953 305.252 235.099C305.252 230.244 301.327 226.309 296.485 226.309C291.644 226.309 287.719 230.244 287.719 235.099C287.719 239.953 291.644 243.888 296.485 243.888Z" fill="#00426C"/>
<path d="M294.148 231.863C296.108 230.439 297.174 228.561 296.529 227.667C295.883 226.774 293.771 227.204 291.81 228.627C289.85 230.051 288.784 231.93 289.429 232.823C290.075 233.717 292.187 233.287 294.148 231.863Z" fill="white"/>
</g>
<defs>
<clipPath id="clip0">
<path d="M0 0H386V364H0V0Z" fill="white"/>
</clipPath>
</defs>
</svg>
