<svg width="386" height="364" viewBox="0 0 386 364" fill="none" xmlns="http://www.w3.org/2000/svg">
<g clip-path="url(#clip0)">
<path d="M189.381 364C252.884 364 304.363 356.013 304.363 346.16C304.363 336.308 252.884 328.32 189.381 328.32C125.878 328.32 74.3984 336.308 74.3984 346.16C74.3984 356.013 125.878 364 189.381 364Z" fill="#3F3D56"/>
<path d="M186.337 75.5801C186.337 75.5801 189.143 88.5255 179.601 93.5911C179.601 93.5911 181.846 122.296 196.441 122.859C211.036 123.422 211.036 107.662 211.036 107.662L208.79 99.2195C208.79 99.2195 198.125 93.0282 204.861 81.2085L186.337 75.5801Z" fill="#A0616A"/>
<path d="M198.405 82.6163C212.976 82.6163 224.788 70.7726 224.788 56.1626C224.788 41.5527 212.976 29.709 198.405 29.709C183.834 29.709 172.021 41.5527 172.021 56.1626C172.021 70.7726 183.834 82.6163 198.405 82.6163Z" fill="#2F2E41"/>
<path d="M170.619 135.804V167.323L217.21 165.635L213.842 134.679L170.619 135.804Z" fill="#A0616A"/>
<path d="M198.686 84.5861C207.987 84.5861 215.526 77.0262 215.526 67.7007C215.526 58.3752 207.987 50.8154 198.686 50.8154C189.385 50.8154 181.846 58.3752 181.846 67.7007C181.846 77.0262 189.385 84.5861 198.686 84.5861Z" fill="#A0616A"/>
<path d="M177.917 93.5913C177.917 93.5913 168.374 91.9027 165.006 93.5913C161.638 95.2798 157.708 94.717 153.779 111.039L146.481 144.81C146.481 144.81 145.359 154.941 153.779 153.816C162.199 152.69 161.638 138.056 161.638 138.056L167.251 125.111L177.355 113.854L177.917 93.5913Z" fill="#A0616A"/>
<path d="M209.913 100.346C209.913 100.346 223.385 102.034 224.508 109.351C225.631 116.668 219.456 146.499 219.456 146.499L209.913 136.931L214.965 118.357L209.913 100.346Z" fill="#A0616A"/>
<path d="M175.39 93.3106L175.67 103.723L167.812 120.609L169.496 141.434L214.539 141.57L214.403 131.865C214.403 131.865 220.578 123.986 217.21 117.231C213.842 110.477 211.316 100.065 211.316 100.065L206.825 97.2505C206.825 97.2505 214.403 114.98 198.685 112.166C182.968 109.352 182.126 91.6221 182.126 91.6221L175.39 93.3106Z" fill="#D0CDE1"/>
<path d="M162.198 206.723L154.34 251.187L145.358 315.914L141.429 323.231L144.797 330.548L154.34 326.046L158.269 308.597C158.269 308.597 171.741 292.275 169.496 271.45L193.634 213.477L162.198 206.723Z" fill="#A0616A"/>
<path d="M200.932 211.225L206.545 266.384C206.545 266.384 205.422 281.581 208.79 295.089C212.158 308.597 214.404 332.237 214.404 332.237H225.631L223.385 263.007L230.683 206.723L200.932 211.225Z" fill="#A0616A"/>
<path d="M193.073 160.57C193.073 160.57 169.496 158.881 169.496 161.695V167.324C169.496 167.324 165.006 174.641 165.567 181.395C166.128 188.149 144.236 203.346 158.269 210.1C172.303 216.854 190.827 219.106 193.634 216.854C196.441 214.603 198.125 205.597 198.125 205.597C198.125 205.597 198.125 215.728 203.177 216.291C208.229 216.854 238.541 210.663 238.541 205.597C238.541 200.532 216.077 155.223 216.077 155.223C216.077 155.223 199.809 161.133 193.073 160.57Z" fill="#2F2E41"/>
<path d="M144.235 323.794C144.235 323.794 141.99 319.854 139.745 322.669C137.499 325.483 129.079 332.237 129.079 332.237C129.079 332.237 108.309 337.865 122.343 346.308C122.343 346.308 134.692 346.308 139.745 342.368C144.797 338.428 149.849 340.117 149.849 340.117C149.849 340.117 157.708 339.554 158.269 336.177C158.83 332.8 155.328 321.655 155.328 321.655C155.328 321.655 151.533 326.609 144.235 323.794Z" fill="#2F2E41"/>
<path d="M218.894 327.172C218.894 327.172 212.158 325.483 212.158 327.172C212.158 328.86 202.615 338.991 210.474 343.494C218.333 347.997 219.456 346.871 220.017 351.374C220.578 355.877 235.173 359.254 237.418 356.44C239.664 353.625 241.348 348.56 238.541 346.308C235.734 344.057 226.753 329.986 226.753 327.172C226.753 324.357 218.894 327.172 218.894 327.172Z" fill="#2F2E41"/>
<path d="M205.288 108.691C206.376 108.691 207.259 108.248 207.259 107.703C207.259 107.157 206.376 106.715 205.288 106.715C204.2 106.715 203.317 107.157 203.317 107.703C203.317 108.248 204.2 108.691 205.288 108.691Z" fill="#3F3D56"/>
<path d="M205.511 111.88C207.738 111.88 209.542 110.955 209.542 109.814C209.542 108.673 207.738 107.748 205.511 107.748C203.285 107.748 201.48 108.673 201.48 109.814C201.48 110.955 203.285 111.88 205.511 111.88Z" fill="#6C63FF"/>
<path d="M210.259 111.071H200.585V118.167H210.259V111.071Z" fill="#6C63FF"/>
<path d="M216.843 122.163H193.911V156.922H216.843V122.163Z" fill="#6C63FF"/>
<path d="M217.873 121.759C217.873 125.182 212.249 124.005 205.422 124.005C198.595 124.005 192.792 125.092 192.792 121.67C192.792 118.247 198.595 114.664 205.422 114.664C212.249 114.664 217.873 118.337 217.873 121.759Z" fill="#6C63FF"/>
<path d="M217.873 125.441H193.061V128.136H217.873V125.441Z" fill="#3F3D56"/>
<path d="M218.052 151.488H193.239V154.183H218.052V151.488Z" fill="#3F3D56"/>
<path d="M217.873 139.812H193.061V145.201H217.873V139.812Z" fill="#3F3D56"/>
<path d="M217.694 155.71C217.694 156.851 218.055 160.111 205.691 160.111C191.717 160.111 192.881 156.671 192.881 155.53C192.881 154.389 199.061 155.979 205.691 155.979C212.32 155.979 217.694 154.569 217.694 155.71Z" fill="#6C63FF"/>
<path d="M211.065 109.813H199.6V113.676H211.065V109.813Z" fill="#3F3D56"/>
<path opacity="0.1" d="M196.509 130.427H194.986V138.869H196.509V130.427Z" fill="white"/>
<path opacity="0.1" d="M196.509 146.503H194.986V149.646H196.509V146.503Z" fill="white"/>
<path d="M221.701 139.744C221.701 139.744 211.035 125.673 211.597 135.804C212.158 145.936 218.333 151.001 219.455 151.001C220.578 151.001 225.069 149.876 221.701 139.744Z" fill="#A0616A"/>
<path opacity="0.1" d="M170.619 150.584C171.461 150.721 184.933 145.655 184.933 145.655L193.354 144.529L170.619 154.062L170.619 150.584Z" fill="black"/>
<path d="M153.217 140.87C153.217 140.87 157.708 138.056 166.69 139.182L184.091 134.679C184.091 134.679 200.37 125.111 206.545 136.93C212.72 148.75 183.53 144.81 183.53 144.81C183.53 144.81 163.883 160.57 152.095 152.127L153.217 140.87Z" fill="#A0616A"/>
<path d="M174.267 44.9051C178.607 44.9051 182.126 41.3772 182.126 37.0253C182.126 32.6734 178.607 29.1455 174.267 29.1455C169.927 29.1455 166.408 32.6734 166.408 37.0253C166.408 41.3772 169.927 44.9051 174.267 44.9051Z" fill="#2F2E41"/>
<path d="M222.543 42.6542C226.884 42.6542 230.402 39.1262 230.402 34.7743C230.402 30.4224 226.884 26.8945 222.543 26.8945C218.203 26.8945 214.685 30.4224 214.685 34.7743C214.685 39.1262 218.203 42.6542 222.543 42.6542Z" fill="#2F2E41"/>
<path d="M214.123 31.3974C214.123 29.4539 214.84 27.5791 216.135 26.1332C217.43 24.6873 219.213 23.7724 221.14 23.5642C220.042 23.444 218.932 23.557 217.881 23.8958C216.83 24.2347 215.862 24.7918 215.04 25.5308C214.218 26.2698 213.56 27.1742 213.11 28.185C212.66 29.1959 212.428 30.2904 212.428 31.3974C212.428 32.5044 212.66 33.5989 213.11 34.6098C213.56 35.6206 214.218 36.525 215.04 37.264C215.862 38.003 216.83 38.5601 217.881 38.899C218.932 39.2378 220.042 39.3508 221.14 39.2306C219.213 39.0224 217.43 38.1075 216.135 36.6616C214.84 35.2157 214.123 33.3409 214.123 31.3974Z" fill="#2F2E41"/>
<path d="M165.486 43.3999C164.13 42.0115 163.333 40.1695 163.249 38.2279C163.165 36.2862 163.8 34.3819 165.031 32.8809C164.81 33.0553 164.598 33.2415 164.397 33.4385C162.909 34.9012 162.061 36.8967 162.04 38.986C162.02 41.0752 162.827 43.0873 164.285 44.5797C165.744 46.0721 167.734 46.9227 169.817 46.9443C171.901 46.966 173.908 46.157 175.397 44.6953C175.597 44.4975 175.787 44.2891 175.966 44.0711C174.444 45.2747 172.532 45.872 170.598 45.7481C168.664 45.6242 166.843 44.7879 165.486 43.3999Z" fill="#2F2E41"/>
<path d="M198.405 43.7803C189.104 43.7803 181.564 48.1902 181.564 53.6301C181.564 56.0641 183.08 58.2886 185.582 60.0072L188.824 57.6519L187.942 61.3418C188.308 61.5117 188.681 61.6763 189.071 61.8283L193.914 56.1629V63.1229C195.399 63.3614 196.901 63.4808 198.405 63.4798C207.705 63.4798 215.245 59.0699 215.245 53.6301C215.245 48.1902 207.705 43.7803 198.405 43.7803Z" fill="#2F2E41"/>
<path d="M214.684 34.7744C214.684 34.7744 213.464 40.4029 221.091 42.6542L214.684 34.7744Z" fill="#6C63FF"/>
<path d="M181.565 35.7988C181.565 35.7988 184.371 42.0914 175.951 44.9056L181.565 35.7988Z" fill="#6C63FF"/>
<path d="M295.988 312.174C297.467 310.524 298.522 308.538 299.063 306.387C299.605 304.237 299.615 301.986 299.094 299.83C298.573 297.675 297.536 295.678 296.073 294.015C294.61 292.351 292.765 291.07 290.697 290.281C292.538 289.213 293.977 287.566 294.789 285.595C295.602 283.624 295.744 281.439 295.192 279.379C294.641 277.319 293.427 275.499 291.739 274.201C290.051 272.903 287.983 272.199 285.856 272.199C283.729 272.199 281.661 272.903 279.973 274.201C278.285 275.499 277.071 277.319 276.52 279.379C275.968 281.439 276.11 283.624 276.923 285.595C277.735 287.566 279.174 289.213 281.015 290.281C278.947 291.07 277.102 292.351 275.639 294.015C274.176 295.678 273.139 297.675 272.618 299.83C272.097 301.986 272.107 304.237 272.648 306.387C273.19 308.538 274.245 310.524 275.724 312.174C272.271 314.374 269.624 317.637 268.179 321.475C266.735 325.312 266.571 329.516 267.713 333.455C268.856 337.393 271.242 340.853 274.514 343.316C277.785 345.778 281.765 347.109 285.856 347.109C289.947 347.109 293.927 345.778 297.198 343.316C300.47 340.853 302.856 337.393 303.999 333.455C305.141 329.516 304.977 325.312 303.533 321.475C302.088 317.637 299.441 314.374 295.988 312.174Z" fill="#3F3D56"/>
<path d="M121.627 201.067C129.396 201.067 135.694 194.752 135.694 186.963C135.694 179.173 129.396 172.858 121.627 172.858C113.858 172.858 107.561 179.173 107.561 186.963C107.561 194.752 113.858 201.067 121.627 201.067Z" fill="#6C63FF"/>
<path d="M118.598 198.494C119.971 197.38 119.102 194.023 116.658 190.996C114.214 187.969 111.12 186.418 109.747 187.532C108.375 188.646 109.244 192.003 111.688 195.03C114.132 198.057 117.226 199.608 118.598 198.494Z" fill="white"/>
<path d="M29.6183 159.449C37.3871 159.449 43.6849 153.134 43.6849 145.344C43.6849 137.555 37.3871 131.24 29.6183 131.24C21.8496 131.24 15.5518 137.555 15.5518 145.344C15.5518 153.134 21.8496 159.449 29.6183 159.449Z" fill="#3F3D56"/>
<path d="M23.4439 143.676C24.4552 139.915 23.893 136.493 22.1882 136.032C20.4835 135.571 18.2817 138.246 17.2705 142.006C16.2592 145.767 16.8214 149.189 18.5262 149.65C20.2309 150.111 22.4327 147.436 23.4439 143.676Z" fill="white"/>
<path d="M8.76819 71.2512C13.6096 71.2512 17.5344 67.316 17.5344 62.4616C17.5344 57.6072 13.6096 53.6719 8.76819 53.6719C3.92673 53.6719 0.00195312 57.6072 0.00195312 62.4616C0.00195312 67.316 3.92673 71.2512 8.76819 71.2512Z" fill="#3F3D56"/>
<path d="M4.92096 61.4218C5.55116 59.0783 5.20081 56.9457 4.13842 56.6585C3.07603 56.3712 1.70391 58.0382 1.07371 60.3817C0.4435 62.7252 0.793856 64.8578 1.85625 65.1451C2.91864 65.4323 4.29075 63.7653 4.92096 61.4218Z" fill="white"/>
<path d="M99.5953 288.696C104.437 288.696 108.362 284.76 108.362 279.906C108.362 275.051 104.437 271.116 99.5953 271.116C94.7539 271.116 90.8291 275.051 90.8291 279.906C90.8291 284.76 94.7539 288.696 99.5953 288.696Z" fill="#3F3D56"/>
<path d="M95.7501 278.866C96.3803 276.523 96.0299 274.39 94.9675 274.103C93.9052 273.816 92.533 275.483 91.9028 277.826C91.2726 280.17 91.623 282.302 92.6853 282.589C93.7477 282.877 95.1199 281.21 95.7501 278.866Z" fill="white"/>
<path d="M371.934 190.863C379.703 190.863 386 184.548 386 176.758C386 168.969 379.703 162.654 371.934 162.654C364.165 162.654 357.867 168.969 357.867 176.758C357.867 184.548 364.165 190.863 371.934 190.863Z" fill="#3F3D56"/>
<path d="M362.342 183.81C364.108 183.81 365.539 180.653 365.539 176.758C365.539 172.863 364.108 169.706 362.342 169.706C360.577 169.706 359.146 172.863 359.146 176.758C359.146 180.653 360.577 183.81 362.342 183.81Z" fill="white"/>
<path d="M326.537 100.467C334.306 100.467 340.604 94.1525 340.604 86.363C340.604 78.5735 334.306 72.2588 326.537 72.2588C318.769 72.2588 312.471 78.5735 312.471 86.363C312.471 94.1525 318.769 100.467 326.537 100.467Z" fill="#6C63FF"/>
<path d="M322.786 81.1712C325.931 78.8864 327.642 75.8719 326.606 74.4382C325.57 73.0045 322.181 73.6944 319.035 75.9792C315.889 78.264 314.179 81.2785 315.214 82.7122C316.25 84.1459 319.64 83.456 322.786 81.1712Z" fill="white"/>
<path d="M362.342 17.5803C367.184 17.5803 371.109 13.6451 371.109 8.79066C371.109 3.93625 367.184 0.000976562 362.342 0.000976562C357.501 0.000976562 353.576 3.93625 353.576 8.79066C353.576 13.6451 357.501 17.5803 362.342 17.5803Z" fill="#6C63FF"/>
<path d="M360.005 5.5549C361.966 4.13102 363.032 2.25242 362.386 1.35893C361.741 0.465438 359.628 0.895412 357.668 2.31929C355.707 3.74317 354.641 5.62178 355.287 6.51526C355.932 7.40875 358.045 6.97878 360.005 5.5549Z" fill="white"/>
<path d="M296.485 243.888C301.326 243.888 305.251 239.953 305.251 235.098C305.251 230.244 301.326 226.309 296.485 226.309C291.644 226.309 287.719 230.244 287.719 235.098C287.719 239.953 291.644 243.888 296.485 243.888Z" fill="#3F3D56"/>
<path d="M294.148 231.863C296.108 230.44 297.174 228.561 296.529 227.668C295.883 226.774 293.771 227.204 291.81 228.628C289.85 230.052 288.784 231.93 289.43 232.824C290.075 233.717 292.188 233.287 294.148 231.863Z" fill="white"/>
</g>
<defs>
<clipPath id="clip0">
<rect width="386" height="364" fill="white"/>
</clipPath>
</defs>
</svg>
