<svg width="428" height="322" viewBox="0 0 428 322" fill="none" xmlns="http://www.w3.org/2000/svg">
<g clip-path="url(#clip0)">
<path d="M255.086 13.0718H82.7438V157.775H255.086V13.0718Z" fill="#F9F9F9"/>
<path d="M299.885 249.464C299.885 249.464 303.802 263.677 303.802 265.638C303.802 267.598 310.167 267.108 310.167 267.108L315.063 259.266C315.063 259.266 311.146 251.425 310.167 247.504C309.187 243.583 299.885 249.464 299.885 249.464Z" fill="#F3DECF"/>
<path d="M307.229 262.697C307.229 262.697 313.104 264.168 313.104 259.757C313.104 255.346 315.552 257.306 315.552 257.306C315.552 257.306 321.427 260.737 318.979 264.168C316.531 267.598 312.125 271.519 310.656 274.95C309.187 278.381 304.781 287.693 299.885 285.732C294.989 283.772 298.416 279.361 298.416 279.361C298.416 279.361 302.333 273.48 301.354 268.579C300.374 263.677 299.885 261.227 301.354 261.227C302.822 261.227 305.27 259.757 305.27 261.717C305.27 263.677 307.229 262.697 307.229 262.697Z" fill="#1F7DA2"/>
<path d="M306.984 80.6226C317.259 80.6226 325.589 72.2843 325.589 61.9986C325.589 51.7128 317.259 43.3745 306.984 43.3745C296.709 43.3745 288.379 51.7128 288.379 61.9986C288.379 72.2843 296.709 80.6226 306.984 80.6226Z" fill="#2F2E41"/>
<path d="M305.026 62.9786C314.219 62.9786 321.672 55.518 321.672 46.315C321.672 37.1119 314.219 29.6514 305.026 29.6514C295.832 29.6514 288.379 37.1119 288.379 46.315C288.379 55.518 295.832 62.9786 305.026 62.9786Z" fill="#2F2E41"/>
<path d="M296.213 144.826L286.42 143.846L282.423 134.058L282.993 125.222H296.213V144.826Z" fill="#3F3D56"/>
<path opacity="0.1" d="M296.213 144.826L286.42 143.846L282.423 134.058L282.993 125.222H296.213V144.826Z" fill="black"/>
<path d="M296.947 74.4961C296.947 74.4961 296.457 86.7488 294.499 88.2191C292.541 89.6894 297.437 95.5707 297.437 95.5707L305.27 93.6102L311.146 88.2191L308.698 87.729C308.698 87.729 308.698 80.8675 310.166 78.9071C311.635 76.9466 296.947 74.4961 296.947 74.4961Z" fill="#E2C2AB"/>
<path d="M283.238 122.527C283.238 122.527 288.134 135.269 287.155 146.052C286.176 156.834 309.187 147.522 309.187 147.522L316.042 143.111C316.042 143.111 318 129.878 316.042 126.938C314.083 123.997 310.166 113.705 310.166 113.705L299.885 112.234L283.238 122.527Z" fill="#F3DECF"/>
<path d="M365.562 178.787C365.562 178.787 373.911 169.549 375.307 168.66C376.704 167.772 373.47 163.451 373.47 163.451L365.665 163.51C365.665 163.51 361.854 169.86 359.505 172.336C357.156 174.812 365.562 178.787 365.562 178.787Z" fill="#E2C2AB"/>
<path d="M371.659 167.547C371.659 167.547 370.044 162.687 366.901 164.686C363.759 166.685 364.046 164.049 364.046 164.049C364.046 164.049 363.827 158.301 367.381 158.493C370.934 158.685 375.724 160.054 378.834 159.547C381.943 159.04 390.574 157.965 391.396 162.348C392.219 166.732 387.524 166.284 387.524 166.284C387.524 166.284 381.559 166.154 378.511 169.075C375.464 171.995 373.941 173.455 373.275 172.407C372.609 171.358 370.452 170.277 371.849 169.389C373.245 168.5 371.659 167.547 371.659 167.547Z" fill="#1F7DA2"/>
<path d="M291.561 83.3181C291.561 83.3181 285.686 79.8874 284.217 70.0852C282.748 60.2831 272.467 25.9757 272.467 25.9757C272.467 25.9757 265.612 2.45054 263.164 10.2922C260.716 18.1339 266.102 26.9559 266.102 26.9559L272.956 58.8128C272.956 58.8128 278.832 99.9817 281.769 101.942C284.707 103.903 291.561 83.3181 291.561 83.3181Z" fill="#F3DECF"/>
<path d="M315.403 85.2219C315.403 85.2219 322.205 85.1478 328.323 77.3546C334.442 69.5615 360.324 44.8299 360.324 44.8299C360.324 44.8299 377.902 27.7741 376.157 35.8019C374.411 43.8296 365.373 48.8322 365.373 48.8322L343.679 73.13C343.679 73.13 318.238 106.007 314.716 106.257C311.194 106.507 315.403 85.2219 315.403 85.2219Z" fill="#E2C2AB"/>
<path d="M305.27 82.3381C312.03 82.3381 317.511 76.8524 317.511 70.0854C317.511 63.3185 312.03 57.8328 305.27 57.8328C298.51 57.8328 293.03 63.3185 293.03 70.0854C293.03 76.8524 298.51 82.3381 305.27 82.3381Z" fill="#F3DECF"/>
<path d="M316.912 135.399C316.912 135.399 299.885 147.522 293.52 145.562C287.155 143.601 286.176 142.131 286.176 142.131C286.176 142.131 280.3 182.32 284.707 198.003C284.707 198.003 285.196 213.686 289.603 219.568L299.885 253.385C299.885 253.385 311.146 252.895 311.146 248.974C311.146 248.974 309.677 240.642 309.677 234.761C309.677 228.88 301.843 214.177 301.843 214.177L307.229 173.008C307.229 173.008 327.792 214.177 336.116 211.236C344.439 208.295 367.94 177.419 367.94 177.419L360.596 170.557C360.596 170.557 340.032 182.81 337.584 189.181C337.584 189.181 321.21 138.959 316.912 135.399Z" fill="#5A5A5A"/>
<path d="M303.802 89.6894C303.802 89.6894 310.166 84.7883 311.146 84.7883H317.511C317.511 84.7883 322.407 96.5509 320.448 101.452C320.448 101.452 318 114.195 317.511 115.175C317.021 116.155 317.511 119.096 318.49 122.036C319.469 124.977 322.407 131.348 320.938 132.819C319.469 134.289 318 138.21 317.021 138.21C316.042 138.21 308.208 130.858 306.739 125.957C305.27 121.056 305.27 119.586 301.843 121.546C298.416 123.507 283.238 122.527 284.217 130.368C284.659 134.321 285.313 138.248 286.176 142.131C286.176 142.131 280.3 144.091 279.321 134.779C278.342 125.467 277.363 124.977 280.3 121.546C283.238 118.116 279.321 103.902 279.321 103.902C279.321 103.902 284.217 95.5707 285.196 91.1597C286.176 86.7488 290.093 82.3378 290.093 82.3378C290.093 82.3378 292.541 80.8675 294.009 81.8477C295.478 82.8279 296.264 82.3378 296.264 82.3378C296.264 82.3378 293.52 89.1993 296.457 89.1993C299.395 89.1993 303.802 89.6894 303.802 89.6894Z" fill="#1F7DA2"/>
<path opacity="0.1" d="M296.458 142.866C296.863 142.866 297.192 142.208 297.192 141.396C297.192 140.584 296.863 139.926 296.458 139.926C296.052 139.926 295.723 140.584 295.723 141.396C295.723 142.208 296.052 142.866 296.458 142.866Z" fill="black"/>
<path d="M306.494 68.3699C314.607 68.3699 321.183 64.2008 321.183 59.0579C321.183 53.915 314.607 49.7458 306.494 49.7458C298.382 49.7458 291.806 53.915 291.806 59.0579C291.806 64.2008 298.382 68.3699 306.494 68.3699Z" fill="#2F2E41"/>
<path d="M55.3257 122.282C66.6827 122.282 75.8893 109.774 75.8893 94.3457C75.8893 78.9171 66.6827 66.4097 55.3257 66.4097C43.9688 66.4097 34.7622 78.9171 34.7622 94.3457C34.7622 109.774 43.9688 122.282 55.3257 122.282Z" fill="#2F2E41"/>
<path d="M60.4816 112.037C60.4816 112.037 68.79 103.902 69.7692 100.962C70.7484 98.021 82.499 48.0301 82.499 48.0301C82.499 48.0301 92.2911 20.094 96.6976 26.9555C101.104 33.817 89.3535 49.9905 89.3535 49.9905C89.3535 49.9905 86.4159 80.8672 84.4574 88.2188C82.499 95.5704 75.6445 123.016 71.238 125.957L66.8315 134.779L61.9355 135.759L57.529 123.507L58.0186 118.605L60.4816 112.037Z" fill="#BF9874"/>
<path d="M84.947 242.113C84.947 242.113 96.6976 245.543 98.1664 243.583C99.6353 241.622 105.021 253.385 105.021 253.385V257.796L100.125 258.776C100.125 258.776 85.4366 252.405 82.9886 252.405C80.5406 252.405 84.947 242.113 84.947 242.113Z" fill="#BF9874"/>
<path d="M100.125 249.464C100.125 249.464 93.2704 243.583 94.7392 242.602C96.208 241.622 102.083 234.761 105.021 238.682C107.959 242.602 121.178 264.167 117.751 269.068C114.323 273.969 111.875 271.029 111.875 271.029C111.875 271.029 102.77 258.776 99.244 258.776C99.244 258.776 104.042 253.385 100.125 249.464Z" fill="#363537"/>
<path d="M51.1641 286.222C51.1641 286.222 51.6537 302.396 47.2472 307.297C42.8408 312.198 53.1225 311.217 53.1225 311.217L63.8939 303.866C63.8939 303.866 60.9562 296.024 61.9354 288.673L51.1641 286.222Z" fill="#BF9874"/>
<path d="M63.8938 299.945C63.8938 299.945 62.9146 298.965 60.4666 301.906C58.0185 304.846 53.1225 308.277 50.1848 305.337C47.2472 302.396 47.2472 304.846 47.2472 304.846C47.2472 304.846 40.8823 315.139 35.4966 316.609C30.1109 318.079 34.0277 322.98 38.9238 321.02C43.8199 319.06 67.8107 310.728 67.8107 310.728C67.8107 310.728 67.3211 303.866 63.8938 299.945Z" fill="#363537"/>
<path d="M28.1523 169.577L20.8082 180.849C20.8082 180.849 2.69272 195.062 11.9953 196.533C21.2978 198.003 26.6835 183.3 26.6835 183.3L33.0484 175.458L28.1523 169.577Z" fill="#BF9874"/>
<path d="M25.7043 167.616C25.7043 167.616 34.0277 179.869 37.9445 180.849C41.8614 181.83 40.3926 171.537 40.3926 171.537L25.7043 167.616Z" fill="#D89F0E"/>
<path opacity="0.1" d="M25.7043 167.616C25.7043 167.616 34.0277 179.869 37.9445 180.849C41.8614 181.83 40.3926 171.537 40.3926 171.537L25.7043 167.616Z" fill="black"/>
<path d="M36.4756 166.636L37.9444 192.122C37.9444 192.122 32.5588 229.86 40.8821 238.682C40.8821 238.682 45.7782 251.915 45.7782 256.816C45.7782 261.717 49.2054 291.123 49.2054 291.123H63.404C63.404 291.123 66.3417 250.444 58.508 237.702V168.107L36.4756 166.636Z" fill="#363537"/>
<path opacity="0.1" d="M36.2346 217.142C36.3042 226.132 37.3787 234.969 40.8823 238.682C40.8823 238.682 45.7784 251.915 45.7784 256.816C45.7784 261.717 49.2057 291.123 49.2057 291.123H63.4043C63.4043 291.123 66.3419 250.445 58.5082 237.702V219.504" fill="#363537"/>
<path d="M51.6537 172.517L36.9654 211.236C36.9654 211.236 28.1525 244.563 38.9239 247.994C49.6952 251.424 77.6029 250.444 82.0094 253.875C86.4158 257.306 88.8639 243.583 87.395 242.112C85.9262 240.642 62.425 232.8 52.6329 232.8C52.6329 232.8 78.5821 197.513 72.2172 189.671C65.8523 181.829 57.0394 172.027 51.6537 172.517Z" fill="#363537"/>
<path d="M48.2263 98.0212C48.2263 98.0212 48.7159 111.254 46.2679 111.744C44.259 112.235 42.2939 112.891 40.3926 113.705V121.056L44.3094 123.507L54.1016 117.626L58.0185 114.195L61.9353 110.764C61.9353 110.764 59.4873 103.903 61.9353 99.4916L48.2263 98.0212Z" fill="#9D7E62"/>
<path d="M46.2679 119.096C46.2679 119.096 54.5912 111.254 56.5497 111.744C58.5081 112.234 64.1386 108.559 64.1386 108.559C63.0491 112.321 62.3116 116.177 61.9354 120.076C61.6702 123.262 62.2669 125.01 62.8696 125.942C63.5683 126.993 64.1358 128.126 64.5593 129.315C65.3696 131.686 66.8707 134.55 68.7899 131.349C68.7899 131.349 67.8106 136.74 66.8314 152.423C65.8522 168.107 71.2379 178.889 71.2379 178.889C71.2379 178.889 75.6444 190.651 73.6859 193.102C73.6859 193.102 58.5081 183.3 59.4873 178.889C59.4873 178.889 24.2356 173.988 24.2356 167.616C24.2262 165.781 24.6678 163.972 25.5217 162.348C26.3755 160.724 27.6152 159.336 29.1316 158.304C29.4592 155.301 30.1159 152.342 31.0901 149.482C31.0901 149.482 25.7044 138.21 30.6005 128.898C30.6005 128.898 26.194 116.155 32.0693 113.215C37.9446 110.274 45.2887 111.744 45.2887 111.744C45.2887 111.744 38.4342 116.155 42.8407 118.606L46.2679 119.096Z" fill="#D89F0E"/>
<path d="M55.5706 103.903C62.3307 103.903 67.8108 98.4168 67.8108 91.6499C67.8108 84.8829 62.3307 79.3972 55.5706 79.3972C48.8105 79.3972 43.3304 84.8829 43.3304 91.6499C43.3304 98.4168 48.8105 103.903 55.5706 103.903Z" fill="#BF9874"/>
<path d="M56.5497 91.405C63.9858 91.405 70.0139 88.2233 70.0139 84.2984C70.0139 80.3736 63.9858 77.1919 56.5497 77.1919C49.1136 77.1919 43.0855 80.3736 43.0855 84.2984C43.0855 88.2233 49.1136 91.405 56.5497 91.405Z" fill="#2F2E41"/>
<path d="M40.6375 75.2314C42.8007 75.2314 44.5544 73.4759 44.5544 71.3105C44.5544 69.1451 42.8007 67.3896 40.6375 67.3896C38.4743 67.3896 36.7206 69.1451 36.7206 71.3105C36.7206 73.4759 38.4743 75.2314 40.6375 75.2314Z" fill="#2F2E41"/>
<path d="M70.014 75.2314C72.1772 75.2314 73.9308 73.4759 73.9308 71.3105C73.9308 69.1451 72.1772 67.3896 70.014 67.3896C67.8507 67.3896 66.0971 69.1451 66.0971 71.3105C66.0971 73.4759 67.8507 75.2314 70.014 75.2314Z" fill="#2F2E41"/>
<path d="M0 321.755H416.765" stroke="#3F3D56" stroke-miterlimit="10"/>
<path d="M265.857 0.244873H93.5151V144.948H265.857V0.244873Z" stroke="#3F3D56" stroke-miterlimit="10"/>
<path d="M179.686 47.9147V38.6592L167.578 50.9999L179.686 63.341V54.0851C189.675 54.0851 197.848 62.4152 197.848 72.5965C197.848 75.6049 197.121 78.5687 195.729 81.2348L200.118 85.7089C202.595 81.785 203.907 77.2378 203.902 72.5965C203.902 59.0217 193.005 47.9147 179.686 47.9147ZM179.686 91.1081C169.697 91.1081 161.524 82.7771 161.524 72.5965C161.524 69.588 162.251 66.6241 163.642 63.9576L159.253 59.4843C156.757 63.3988 155.443 67.9521 155.47 72.5965C155.47 86.1713 166.367 97.2783 179.686 97.2783V106.534L191.794 94.1932L179.686 81.852V91.1081Z" fill="#9ABA19"/>
<path d="M394.938 260.89C396.421 261.429 398.009 261.617 399.577 261.437C401.145 261.258 402.65 260.716 403.973 259.855C405.296 258.994 406.401 257.838 407.202 256.476C408.002 255.115 408.475 253.586 408.585 252.01C408.694 250.434 408.436 248.854 407.831 247.395C407.227 245.936 406.292 244.637 405.1 243.601C403.909 242.565 402.493 241.821 400.965 241.426C399.437 241.032 397.838 240.998 396.295 241.327L396.55 246.577L394.068 242.078C391.633 243.223 389.751 245.29 388.837 247.823C388.513 248.71 388.316 249.639 388.251 250.582C388.095 252.794 388.663 254.997 389.869 256.857C391.076 258.717 392.855 260.133 394.938 260.89Z" fill="#4D8037"/>
<path d="M407.216 321.783C406.34 317.318 410.135 313.359 413.885 310.786C417.634 308.213 422.014 305.685 423.294 301.319C425.132 295.044 419.656 289.297 415.394 284.341C412.231 280.663 409.516 276.623 407.303 272.305C406.417 270.574 405.602 268.764 405.368 266.832C405.032 264.051 405.925 261.283 406.824 258.63C409.821 249.791 413.024 241.026 416.435 232.335" stroke="#3F3D56" stroke-miterlimit="10"/>
<path d="M395.357 259.539C396.841 260.079 398.429 260.266 399.997 260.087C401.564 259.907 403.069 259.366 404.392 258.505C405.716 257.644 406.821 256.487 407.621 255.125C408.422 253.764 408.895 252.235 409.004 250.659C409.114 249.083 408.856 247.503 408.251 246.044C407.647 244.585 406.712 243.286 405.52 242.25C404.328 241.215 402.913 240.47 401.385 240.075C399.857 239.681 398.258 239.647 396.714 239.976L396.969 245.226L394.488 240.727C392.053 241.872 390.171 243.939 389.257 246.472C388.933 247.36 388.735 248.289 388.671 249.231C388.514 251.444 389.082 253.647 390.289 255.506C391.496 257.366 393.275 258.782 395.357 259.539V259.539Z" stroke="#3F3D56" stroke-miterlimit="10"/>
<path d="M405.97 230.522C406.552 228.915 407.529 227.48 408.811 226.349C410.093 225.219 411.638 224.43 413.304 224.054L414.143 229.045L415.699 223.803C417.859 223.835 419.952 224.554 421.678 225.854C423.403 227.155 424.671 228.971 425.298 231.04C425.925 233.109 425.879 235.324 425.166 237.365C424.454 239.407 423.112 241.168 421.334 242.396C419.556 243.624 417.434 244.255 415.275 244.197C413.116 244.139 411.031 243.396 409.321 242.074C407.612 240.753 406.366 238.922 405.763 236.846C405.161 234.769 405.233 232.555 405.97 230.522Z" fill="#57B894"/>
<path d="M406.53 228.72C407.112 227.113 408.089 225.678 409.37 224.547C410.652 223.417 412.197 222.628 413.864 222.252L414.703 227.243L416.258 222.001C418.418 222.033 420.512 222.752 422.237 224.052C423.963 225.353 425.23 227.169 425.857 229.238C426.484 231.307 426.438 233.522 425.726 235.563C425.013 237.605 423.671 239.366 421.894 240.594C420.116 241.822 417.994 242.453 415.835 242.395C413.676 242.337 411.591 241.594 409.881 240.272C408.171 238.951 406.925 237.12 406.323 235.044C405.721 232.967 405.793 230.753 406.53 228.72Z" fill="#4D8037" stroke="#3F3D56" stroke-miterlimit="10"/>
<path d="M413.605 284.442C415.957 285.297 418.541 285.254 420.864 284.324C423.187 283.394 425.087 281.64 426.201 279.398C427.316 277.155 427.567 274.581 426.907 272.165C426.247 269.749 424.722 267.66 422.623 266.297L421.428 270.326L420.58 265.276C420.572 265.272 420.563 265.269 420.554 265.266C418.014 264.343 415.211 264.469 412.763 265.615C410.315 266.761 408.422 268.833 407.501 271.376C406.579 273.919 406.705 276.724 407.849 279.175C408.994 281.625 411.064 283.52 413.605 284.442H413.605Z" fill="#57B894"/>
<path d="M414.09 282.617C416.442 283.471 419.026 283.429 421.349 282.498C423.672 281.568 425.572 279.815 426.686 277.572C427.801 275.33 428.052 272.755 427.392 270.339C426.732 267.923 425.207 265.835 423.108 264.472L421.912 268.5L421.065 263.45C421.057 263.446 421.048 263.443 421.039 263.44C418.499 262.518 415.696 262.643 413.248 263.789C410.8 264.935 408.907 267.007 407.986 269.55C407.064 272.093 407.19 274.899 408.334 277.349C409.479 279.8 411.549 281.694 414.09 282.617Z" fill="#4D8037" stroke="#3F3D56" stroke-miterlimit="10"/>
<path d="M402.997 301.381C403.401 303.685 404.584 305.779 406.348 307.313C408.112 308.847 410.349 309.727 412.685 309.806C415.02 309.884 417.311 309.157 419.174 307.745C421.037 306.334 422.358 304.324 422.917 302.053C423.475 299.782 423.236 297.387 422.24 295.271C421.245 293.156 419.552 291.447 417.447 290.432C415.342 289.417 412.953 289.157 410.679 289.696C408.406 290.236 406.386 291.541 404.96 293.394L409.5 300.234L403.297 296.603C402.816 298.149 402.713 299.787 402.997 301.381Z" fill="#57B894"/>
<path d="M403.416 300.03C403.821 302.333 405.004 304.427 406.768 305.961C408.532 307.495 410.769 308.375 413.104 308.454C415.439 308.533 417.731 307.805 419.594 306.394C421.457 304.982 422.778 302.972 423.336 300.701C423.895 298.43 423.656 296.036 422.66 293.92C421.664 291.804 419.972 290.095 417.867 289.08C415.762 288.065 413.372 287.805 411.099 288.345C408.825 288.884 406.806 290.189 405.38 292.042L409.92 298.882L403.716 295.252C403.235 296.797 403.132 298.436 403.416 300.03Z" fill="#4D8037" stroke="#3F3D56" stroke-miterlimit="10"/>
</g>
<defs>
<clipPath id="clip0">
<path d="M0 0H428V322H0V0Z" fill="white"/>
</clipPath>
</defs>
</svg>
